<svg xmlns="http://www.w3.org/2000/svg" width="55.596" height="66.547" viewBox="0 0 55.596 66.547">
    <defs>
        <style>
            .cls-1{fill:#fff;stroke:#2d2d2d;stroke-miterlimit:10}
        </style>
    </defs>
    <g id="Group_110907" transform="translate(-731.794 -103.473)">
        <path id="Path_145945" d="M759.536 124.113a14.645 14.645 0 0 1 6.4 8.127 11.823 11.823 0 0 1-.234 8.357c-2.367 5.309-8.2 6.4-8.67 6.48a12.545 12.545 0 0 1-10.152-3.044h-9.133a19.121 19.121 0 0 0 7.655 7.959 18.889 18.889 0 0 0 8.357 2.343 20.648 20.648 0 0 0 13.9-4.841 18.344 18.344 0 0 0 6.246-10.308 18.73 18.73 0 0 0-1.483-11.089 23.275 23.275 0 0 0-7.654-9.762z" class="cls-1" transform="translate(2.708 7.176)"/>
        <path id="Path_145946" d="M763.911 104.247c-1.169.512-1.274 1.66-2.436 3.8-1.773 3.266-3.648 4.485-5.829 6.725-6.789 6.98-4.2 11.192-11.155 18.22-2.643 2.676-4.518 3.576-4.457 5.581.095 3.068 4.646 6.333 7.572 5.437 1.737-.533 2.256-2.336 3.507-4.841 3.948-7.909 7-6.453 11.962-15.024 2.893-4.994 2.42-6.461 5.492-9.931 1.866-2.112 3.2-2.888 3.2-4.5-.003-3.168-5.19-6.638-7.856-5.467z" class="cls-1" transform="translate(3.852 0)"/>
        <path id="Path_145947" d="M759.066 107.134c.772-.1 1.282.173 5.872 3.376 2.981 2.081 3.3 2.333 3.5 2.9.651 1.776-.911 3.425-3.915 7.618-5.976 8.346-8.966 12.522-9.665 13.78-.752 1.348-1.633 3.074-3.337 3.466-1.395.32-2.631-.413-4.924-1.822-2.762-1.7-4.653-2.857-4.9-4.7-.164-1.216.474-2.075 2.123-4.367 3.418-4.749 5.947-8.381 6.42-9.073 1.034-1.494 1.861-2.78 4.5-6.594 2.426-3.504 3.115-4.428 4.326-4.584z" class="cls-1" transform="translate(4.675 1.555)"/>
        <circle id="Ellipse_13093" cx="8.13" cy="8.13" r="8.13" fill="#ff8e93" stroke="#2d2d2d" stroke-linecap="round" stroke-miterlimit="10" transform="translate(756.003 120.864)"/>
        <path id="Path_145948" d="M733.837 134.787a1.356 1.356 0 0 0 .024 2.306c.024.017.048.035.073.051 1.412.994 4.083.45 11.323.453 6.914 0 9.538.5 10.853-.453a1.329 1.329 0 0 0 .032-2.259l-.05-.036c-1.382-.991-4.137-.416-11.188-.434-6.996-.015-9.726-.594-11.067.372z" class="cls-1" transform="translate(0.432 15.14)"/>
        <path id="Path_145949" d="M732.8 145.614a1.857 1.857 0 0 0-.192 2.175c1.717 2.723 10.715.8 27.366 1 11.7.137 19.355 1.226 20.876-1.132a1.71 1.71 0 0 0-.114-1.986c-1.99-2.577-10.643-.057-23.972-.087-13.373-.038-21.802-2.621-23.964.03z" class="cls-1" transform="translate(0 20.247)"/>
        <path id="Path_145950" d="M741.312 152.392a22.9 22.9 0 0 1 3.837-8.3c2.031-2.738 4.827-6.71 8.462-6.534 3.1.153 5.24 3.212 7.321 6.182a25.164 25.164 0 0 1 3.867 8.682z" class="cls-1" transform="translate(4.493 16.806)"/>
        <g id="Group_110906" transform="translate(769.712 149.866)">
            <path id="Path_77484" fill="#86bcff" stroke="#2d2d2d" stroke-miterlimit="10" d="M757.371 138.518a1.109 1.109 0 0 1 1.078-1.015 10.425 10.425 0 0 0 3.55-.648 9.268 9.268 0 0 0 1.93-1.178l1.106-.853a1.219 1.219 0 0 1 1.555.033 12 12 0 0 0 2.844 1.885 1.859 1.859 0 0 0 .2.078 10.385 10.385 0 0 0 3.466.552 1.11 1.11 0 0 1 1.094.989c.245 2.014.554 6.524-.982 9.727a14.171 14.171 0 0 1-6.888 6.022 1.086 1.086 0 0 1-.874.007 14.052 14.052 0 0 1-6.9-5.9c-1.581-3.17-1.375-7.677-1.179-9.699z" transform="translate(-757.238 -134.56)"/>
        </g>
        <path id="Path_186803" fill="#fff" d="M763.07 145.548a.888.888 0 0 1-.588-.222 15.632 15.632 0 0 1-1.265-1.256 15.385 15.385 0 0 1-1.09-1.374.888.888 0 0 1 1.453-1.022 13.233 13.233 0 0 0 .961 1.211q.286.32.6.624c.836-.623 1.656-1.282 2.444-1.963.958-.829 1.89-1.707 2.768-2.612a.888.888 0 1 1 1.274 1.237c-.914.941-1.884 1.857-2.881 2.718s-2.073 1.713-3.155 2.492a.886.886 0 0 1-.521.167z" transform="translate(13.839 17.363)"/>
    </g>
</svg>
