<svg xmlns="http://www.w3.org/2000/svg" width="55.078" height="68.747" viewBox="0 0 55.078 68.747">
    <defs>
        <style>
            .cls-1,.cls-2{fill:#fff;stroke:#2d2d2d;stroke-miterlimit:10}.cls-2{fill:#ff8e93}
        </style>
    </defs>
    <g id="Group_110912" transform="translate(-1037.52 -535.082)">
        <g id="Group_110911" transform="translate(1038 535.614)">
            <path id="Path_38801" d="M998.926 752.261a3.9 3.9 0 0 1-1.937 5.163q-.068.032-.137.06c-1.858.358-3.439-2.181-3.53-2.333-.221-.365-1.472-2.428-.477-3.826.878-1.238 2.83-.986 3.11-.956a3.992 3.992 0 0 1 2.971 1.892z" class="cls-1" transform="translate(-981.503 -732.19)"/>
            <path id="Path_38802" d="M1016.639 752.207a3.9 3.9 0 0 0 1.937 5.164l.138.059c1.855.359 3.436-2.182 3.527-2.332.221-.365 1.472-2.43.479-3.828-.88-1.237-2.83-.986-3.112-.956a3.99 3.99 0 0 0-2.969 1.893z" class="cls-1" transform="translate(-978.897 -732.196)"/>
            <path id="Path_38803" d="M1036.613 786.543c-1.26 7.765-16.127 11.409-25.754 11.664-11.552.3-27.059-3.977-28.208-11.664-.622-4.169 3.181-8 6.722-11.574a26.967 26.967 0 0 1 38.043-2.68q.9.779 1.721 1.633c3.295 3.067 8.273 7.702 7.476 12.621z" class="cls-1" transform="translate(-982.584 -730.51)"/>
            <path id="Path_38804" d="M992.545 770.373a13.689 13.689 0 0 0-.274 4.563 13.917 13.917 0 0 0 2.433 6.436" class="cls-1" transform="translate(-981.533 -729.997)"/>
            <path id="Path_38805" d="M1019.766 775.305c.071-.789.114-1.629.109-2.539a26.039 26.039 0 0 0-.31-3.83" class="cls-1" transform="translate(-978.538 -730.154)"/>
            <path id="Path_38806" d="M999.638 781.724a4.434 4.434 0 1 1-4.434-4.437 4.434 4.434 0 0 1 4.434 4.437z" class="cls-2" transform="translate(-982.033 -728.288)"/>
            <path id="Path_186822" fill="#86bcff" stroke="#2d2d2d" d="M12427.252 6364.151s-3.821 12.65-7.6 12.65-7.529-12.65-7.529-12.65a27.512 27.512 0 0 1 7.365-1.145 32.644 32.644 0 0 1 7.764 1.145z" transform="translate(-12392.533 -6327.773)"/>
            <ellipse id="Ellipse_2854" cx="12.722" cy="17.805" class="cls-1" rx="12.722" ry="17.805" transform="translate(14.756 2.188)"/>
            <path id="Path_38808" d="M1023.742 790.616c1.538.7 2.59.771 3.214.306 2.691-2.009-.647-15.5-6.342-16.194-5.521-.674-12.086 10.859-9.858 14.048a3.621 3.621 0 0 0 3.093 1.106" class="cls-1" transform="translate(-979.551 -729.524)"/>
            <circle id="Ellipse_2855" cx="1.891" cy="1.891" r="1.891" class="cls-2" transform="translate(33.14 58.677)"/>
            <circle id="Ellipse_2856" cx="1.891" cy="1.891" r="1.891" class="cls-2" transform="translate(41.476 59.156)"/>
            <path id="Path_38809" d="M995.789 752.215a41.8 41.8 0 0 0 9.169-3.352c5.668-2.874 8.612-6.048 11.238-4.864.857.384 1.368 1.213 2.393 2.871a22.336 22.336 0 0 1 2.841 7.1c2.355-6.67.487-13.726-4.279-17.306a14.2 14.2 0 0 0-11.163-2.394 17.076 17.076 0 0 0-5.422 2.394 11.837 11.837 0 0 0-3.352 2.87 10.94 10.94 0 0 0-1.91 4.17 15 15 0 0 0 .485 8.511z" class="cls-1" transform="translate(-981.236 -733.979)"/>
        </g>
    </g>
</svg>
