<svg xmlns="http://www.w3.org/2000/svg" width="77.059" height="68.723" viewBox="0 0 77.059 68.723">
    <defs>
        <style>
            .cls-1,.cls-4{fill:#fff}.cls-2{fill:none}.cls-2,.cls-3,.cls-4,.cls-5{stroke:#2d2d2d;stroke-miterlimit:10}.cls-3{fill:#ff8e93;stroke-linecap:round}.cls-5{fill:#86bcff}
        </style>
    </defs>
    <g id="Group_110910" transform="translate(-1828.452 -595.971)">
        <g id="Group_110908" transform="translate(1828.953 596.482)">
            <path id="Path_186804" d="M1861.379 612.272l.343 2.159-.495.723-8.055.257 2.035-2.558z" class="cls-1" transform="translate(-1808.726 -584.644)"/>
            <path id="Path_186806" d="M1848.923 607.946l2.2-8.854 1.107-.311 4.359-.462 3.12 2.69-.348 4.653-6.241 3.913-.5-1.286z" class="cls-1" transform="translate(-1809.265 -594.684)"/>
            <circle id="Ellipse_18676" cx="7.816" cy="7.816" r="7.816" class="cls-3" transform="translate(60.32 52.081)"/>
            <path id="Path_186807" d="M1870.611 623.243a10.011 10.011 0 0 1 5.691 1.859c1.224.9 3.391 2.96 2.887 4.026-.714 1.512-5.608-1.53-9.576.776-3.683 2.142-3.709 7.23-6.4 7.273a3.619 3.619 0 0 1-2.593-1.165 3.533 3.533 0 0 1-.776-1.776 9.565 9.565 0 0 1 2.193-7.385 11.081 11.081 0 0 1 8.574-3.608z" class="cls-4" transform="translate(-1803.234 -575.485)"/>
            <path id="Path_186808" d="M1859.456 601.233c.969 3.56.062 7.347-1.964 9.05a4.3 4.3 0 0 1-4.81.34" class="cls-4" transform="translate(-1809.135 -595.668)"/>
            <path id="Path_186809" d="M1853.63 609.637c1.965 1.563 1.67 4.845 1.554 6.706-.086 1.4-.328 5.291-3.193 7.509-1.387 1.077-3.657 1.2-8.194 1.444a26.062 26.062 0 0 1-8.216-.947 7.469 7.469 0 0 1-2.1-1.068 7.632 7.632 0 0 1-1.643-1.692 15.075 15.075 0 0 1-2.657-6.394 15.57 15.57 0 0 1-.191-3.782 2.2 2.2 0 0 1 .567-1.433 2.387 2.387 0 0 1 1.31-.677 56.638 56.638 0 0 1 10.758-1.088c1.639.015 2.742.027 3.645.051.639.016 1.615.055 2.452.121 3.207.25 4.809.375 5.908 1.25z" class="cls-4" transform="translate(-1828.952 -588.032)"/>
            <circle id="Ellipse_18677" cx="7.816" cy="7.816" r="7.816" class="cls-3" transform="translate(21.177 52.081)"/>
            <path id="Path_186811" d="M1851.214 621.27a33.2 33.2 0 0 1 8.754.593 14.271 14.271 0 0 0-2.588 4.268 15.111 15.111 0 0 0-.266 9.666l2 .132a33.617 33.617 0 0 1 1.921-7.188c.681-1.729 1.215-3.516 1.956-5.219.666-1.525 1.178-2.5.877-3.672a4.074 4.074 0 0 0-1.912-2.32 29.147 29.147 0 0 0-12.521-3.257z" class="cls-5" transform="translate(-1811.846 -582.973)"/>
            <path id="Path_186812" d="M1880.108 613.258a31.024 31.024 0 0 1 6.878 8.095c1.846 3.149 3.507 5.986 2.966 9.546a12.171 12.171 0 0 1-2.432 5.337 17.277 17.277 0 0 1-5.425 4.735 28.372 28.372 0 0 1-11.525 3.624c-3.718.444-14.285 1.56-24.934-4.091-3.329-1.765-7.456-4.03-8.064-7.946-.371-2.384.7-4.509 1.562-6.225a18.888 18.888 0 0 1 6.819-7.412q5.131 2.513 10.26 5.028a12.845 12.845 0 0 0 16.6 11.4c.831-.264 5.142-1.631 6.959-5.627a12.19 12.19 0 0 0 .675-6.54c-.281-2.716-1.141-4.179-.875-7.164a14.006 14.006 0 0 1 .536-2.76z" class="cls-4" transform="translate(-1821.816 -583.821)"/>
            <path id="Path_186813" d="M1859.385 613.63a4.607 4.607 0 0 1 .9-2.356 4.7 4.7 0 0 1 2.654-1.7 1.12 1.12 0 0 1-.193-.76c.084-.573.7-.863 1.009-1.009a2.713 2.713 0 0 1 1.51-.237c1.83.312 2.65 4.034 2.848 4.935.186.846.749 3.8-.477 6.1a2.845 2.845 0 0 1-3.3 1.626h-.037l-1.2-1.061-.018-.015-1.253-1.11c-.053-.1-.112-.2-.165-.3" class="cls-4" transform="translate(-1803.537 -588.595)"/>
            <path id="Path_186814" d="M1850.91 609.695a7.748 7.748 0 0 1-.409-6.667 7.517 7.517 0 0 1 1.837-2.652 8.258 8.258 0 0 1 4.082-2.109 7.464 7.464 0 0 1 5.782 1.088c1.416 1.065 3.088 3.132 2.516 4.149-.908 1.618-6.3-1.509-8.719.766-2.322 2.186.171 7.42-1.407 8.128-1.007.452-2.828-1.328-3.682-2.703z" class="cls-5" transform="translate(-1813.115 -598.097)"/>
            <path id="Path_186815" d="M1861.041 610.63a4.06 4.06 0 0 0 .771-3.439 3.916 3.916 0 0 0-2.9-2.788 6.884 6.884 0 0 0-3.854.237 10.058 10.058 0 0 0-4.861 3.617 33.488 33.488 0 0 0-3.169 5.276c-.488 1.015-.833 1.863-1.1 2.553-2.788 7.2-4.256 10.853-2.727 12.984 1.3 1.808 3.858 2.046 7.352 2.373 3.072.286 6.063.565 7.412-1.127 1.1-1.382-.066-2.6-.117-8.48a18.5 18.5 0 0 1 .71-6.522 15.774 15.774 0 0 1 2.483-4.684z" class="cls-4" transform="translate(-1817.573 -591.362)"/>
            <path id="Path_186816" fill="#fff" stroke="#2d2d2d" stroke-linecap="round" stroke-miterlimit="10" d="M1853.829 621.6a3.236 3.236 0 0 1-.451-.031h-.031a3.059 3.059 0 0 1-.879-.255c-3.114-1.439-3.416-6.291-3.445-6.876a10.156 10.156 0 0 1 1.554-5.847.374.374 0 0 0 .029-.051 12.022 12.022 0 0 1 2.677-3.094 2.514 2.514 0 0 1 1.5-.587 1.2 1.2 0 0 1 .347.062 1.311 1.311 0 0 1 .519.328 3.583 3.583 0 0 1 .906 2.345v.015a2.9 2.9 0 0 1-.2 1.208 17.277 17.277 0 0 1-1.373 2.255.3.3 0 0 0-.028.044 11.891 11.891 0 0 0-1 2.055c-.531 1.408-1 2.654-.422 3.52.193.286.545.888 4.151.888a45.441 45.441 0 0 0 6.832-.119c.1-.006.185-.017.275-.028a4.739 4.739 0 0 0 .914-.207 18.547 18.547 0 0 0 2.342-1.351c.771-.4 1.167-.6 1.644-.5a2.136 2.136 0 0 1 1.261 1.039 3.189 3.189 0 0 1 .479 2.274 1.353 1.353 0 0 1-1.1 1.3.8.8 0 0 1-.429-.027c-.49-.172-.466-.752-.832-1.125-.34-.347-1.1-.519-2.846.118-.362.108-.716.209-1.064.308" transform="translate(-1812.202 -590.838)"/>
            <path id="Path_186817" d="M1855.652 606.216a4.518 4.518 0 0 0-.894-1.03 3.5 3.5 0 0 0-1.014-.491c-1.681 1.086-3.154 2-4.835 3.088l3.269 1.69 2.49-1.622z" class="cls-1" transform="translate(-1812.285 -591.117)"/>
            <path id="Path_186818" d="M1850.956 615.808c2.8.255 5.124.314 6.775.316 3.795.007 5.714-.279 5.988-1.158a6.806 6.806 0 0 0-.235-1.7c-.127-.677-.246-1.229-.328-1.595" class="cls-2" transform="translate(-1810.577 -585.143)"/>
            <path id="Path_186820" d="M1861.363 608.684a11.731 11.731 0 0 1 1.3 10.633" class="cls-4" transform="translate(-1801.885 -587.641)"/>
        </g>
        <path id="Path_186821" fill="#ff8e93" stroke="#2d2d2d" stroke-miterlimit="10" d="M1843.835 614.713h-2.1a.8.8 0 0 1-.8-.8v-2.1a1.348 1.348 0 0 0-1.052-1.347 1.294 1.294 0 0 0-1.531 1.269v2.182a.8.8 0 0 1-.8.8h-2.1a1.346 1.346 0 0 0-1.347 1.052 1.294 1.294 0 0 0 1.27 1.53h2.182a.8.8 0 0 1 .8.8v2.1a1.346 1.346 0 0 0 1.053 1.347 1.294 1.294 0 0 0 1.53-1.269v-2.182a.8.8 0 0 1 .8-.8h2.182a1.294 1.294 0 0 0 1.27-1.53 1.348 1.348 0 0 0-1.357-1.052z" transform="translate(3.184 9.211)"/>
    </g>
</svg>
