<svg xmlns="http://www.w3.org/2000/svg" width="127.385" height="91.007" viewBox="0 0 127.385 91.007">
  <defs>
    <style>
      .cls-1 {
        fill: #ff8e93;
      }

      .cls-1, .cls-2, .cls-3, .cls-4, .cls-5, .cls-6, .cls-7, .cls-8 {
        stroke: #2d2d2d;
      }

      .cls-1, .cls-2, .cls-3, .cls-4, .cls-5, .cls-6 {
        stroke-miterlimit: 10;
      }

      .cls-2, .cls-4 {
        fill: none;
      }

      .cls-2, .cls-3 {
        stroke-linecap: round;
      }

      .cls-3, .cls-5, .cls-7 {
        fill: #fff;
      }

      .cls-6, .cls-8 {
        fill: #86bcff;
      }
    </style>
  </defs>
  <g id="Group_105503" data-name="Group 105503" transform="translate(0.512 0.5)">
    <g id="Group_104730" data-name="Group 104730" transform="translate(0 20.974)">
      <path id="Path_167135" data-name="Path 167135" class="cls-1" d="M934.094,1307.156a84.86,84.86,0,0,1,75.038.48,58.83,58.83,0,0,0,0,36.762,65.75,65.75,0,0,1-75.038,0,56.24,56.24,0,0,0,0-37.243Z" transform="translate(-912.692 -1289.829)"/>
      <path id="Path_167136" data-name="Path 167136" class="cls-2" d="M936.131,1304.066a117.057,117.057,0,0,1,52.41,0" transform="translate(-903.083 -1278.293)"/>
      <path id="Path_167137" data-name="Path 167137" class="cls-2" d="M936.131,1305.261a117.057,117.057,0,0,0,52.41,0" transform="translate(-903.083 -1258.638)"/>
      <line id="Line_492" data-name="Line 492" class="cls-3" x2="52.408" transform="translate(33.048 35.275)"/>
      <path id="Path_167138" data-name="Path 167138" class="cls-4" d="M951.754,1351.676c-6.215-8.873-28.1-41.106-19.376-51.135a10.737,10.737,0,0,1,10.091-3.151c5.088,1.378,8.759,7.947,9.073,16.62" transform="translate(-930.351 -1297.107)"/>
      <path id="Path_167139" data-name="Path 167139" class="cls-4" d="M947.343,1351.588c6.049-8.663,27.963-40.993,19.193-51.049a10.745,10.745,0,0,0-10.091-3.151c-5.18,1.4-8.919,8.141-9.194,17.072" transform="translate(-850.627 -1297.104)"/>
    </g>
    <g id="Group_104732" data-name="Group 104732" transform="translate(66.226 0)">
      <path id="Path_167058" data-name="Path 167058" class="cls-5" d="M686.9,1297.764h-4.334a3.163,3.163,0,0,1-2.186-.909,3.087,3.087,0,0,1-.91-2.188,23.121,23.121,0,0,1,0-6.192,3.169,3.169,0,0,1,.91-2.188,3.083,3.083,0,0,1,2.186-.91H686.9a3.106,3.106,0,0,1,3.1,3.1,18.613,18.613,0,0,1,0,6.192,3.244,3.244,0,0,1-.569,1.784,2.918,2.918,0,0,1-.34.4A3.549,3.549,0,0,1,686.9,1297.764Z" transform="translate(-643.653 -1279.857)"/>
      <path id="Path_167059" data-name="Path 167059" class="cls-6" d="M661.431,1284.718c3.862-.981,7.13-.712,10.747-.414,6.589.545,6.73,2.844,14.743,4.749,1.314.312,12.677,2.939,15.295,0,1.1-1.235.593-3.387-.964-4.437-2.246-1.516-5.6-.015-10.611.412-9.729.829-11.652-3.585-24.249-3.612-2.359-.005-10.033-.022-11.3,2.476a1.468,1.468,0,0,0,.276,1.859C656.427,1286.474,658.864,1285.371,661.431,1284.718Z" transform="translate(-653.237 -1281.416)"/>
      <path id="Path_167060" data-name="Path 167060" class="cls-5" d="M692.413,1305.536c-1.946.161-4.056.259-6.308.258-2.234,0-4.326-.1-6.259-.258a4.194,4.194,0,0,1-2.888-1.2,4.077,4.077,0,0,1-1.2-2.889v-4.929a4.1,4.1,0,0,1,4.089-4.089c2.011-.133,4.152-.209,6.414-.206,2.164,0,4.219.079,6.153.206a4.191,4.191,0,0,1,2.888,1.2,4.076,4.076,0,0,1,1.2,2.888v4.929a4.361,4.361,0,0,1-.58,2.091,4.062,4.062,0,0,1-.806,1A4.55,4.55,0,0,1,692.413,1305.536Z" transform="translate(-645.03 -1277.165)"/>
      <path id="Path_167061" data-name="Path 167061" class="cls-5" d="M699.134,1363.71c-3.139.294-6.542.486-10.174.516a119.079,119.079,0,0,1-12.041-.516,8.571,8.571,0,0,1-5.9-2.457,8.334,8.334,0,0,1-2.455-5.9c-.572-7.323-.917-15.225-.911-23.635.006-8.255.35-16.018.911-23.223a8.564,8.564,0,0,1,2.455-5.905,8.339,8.339,0,0,1,5.9-2.455c3.606-.3,7.531-.485,11.732-.464,3.727.016,7.231.191,10.483.464a8.564,8.564,0,0,1,5.9,2.455,8.336,8.336,0,0,1,2.456,5.905c.55,7.411.881,15.38.869,23.841-.011,8.153-.336,15.844-.869,23.017a8.617,8.617,0,0,1-1.222,4.336,8.246,8.246,0,0,1-1.235,1.567A9.389,9.389,0,0,1,699.134,1363.71Z" transform="translate(-648.22 -1274.238)"/>
      <path id="Path_167062" data-name="Path 167062" class="cls-7" d="M687.313,1358.119h-4.9l-.055-58.392,4.952-.014Z" transform="translate(-642.055 -1274.219)"/>
      <path id="Path_167063" data-name="Path 167063" class="cls-8" d="M668.009,1312.222h40.01c.13,2.772.272,6.593.325,11.147.075,6.431-.063,11.115-.092,12.081-.368,11.893-.552,17.84-2.465,20.007-3.244,3.677-8.521,3.733-17.936,3.832-9.165.1-13.749.145-16.836-2.975-2.749-2.778-2.93-9.4-3.293-22.651-.113-4.119-.073-8.334-.059-9.726C667.712,1319.123,667.867,1315.1,668.009,1312.222Z" transform="translate(-648.22 -1269.298)"/>
      <path id="Union_2" data-name="Union 2" class="cls-5" d="M685.24,1342.04v-2.581a2.357,2.357,0,0,0-2.356-2.357h-2.571a3.834,3.834,0,0,1,0-7.669h2.582a2.355,2.355,0,0,0,2.356-2.356h0v-2.572a3.835,3.835,0,1,1,7.67,0h0v2.585a2.356,2.356,0,0,0,2.356,2.357h2.571a3.835,3.835,0,0,1,0,7.669h-2.581a2.344,2.344,0,0,0-2.357,2.331v2.6a3.835,3.835,0,1,1-7.67,0h0Z" transform="translate(-647.98 -1270.381)"/>
      <path id="Path_167068" data-name="Path 167068" class="cls-8" d="M657.228,1286.421c.974-.435,7.389,6.463,5.2,11.343-.847,1.885-3.149,3.9-5.419,3.405a4.478,4.478,0,0,1-3.3-4.077c0-2.386,2.722-2.859,3.56-6.193C657.916,1288.311,656.77,1286.627,657.228,1286.421Z" transform="translate(-653.704 -1274.968)"/>
    </g>
  </g>
</svg>
