<svg xmlns="http://www.w3.org/2000/svg" width="127.17" height="117.434" viewBox="0 0 127.17 117.434">
    <defs>
        <style>
            .cls-2,.cls-8{fill:#86bcff;stroke:#2d2d2d;stroke-miterlimit:10}.cls-8{stroke-linecap:round;fill:#ff4b52}.cls-9{fill:none;stroke:#ff4b52}
        </style>
    </defs>
    <g id="Group_105504" transform="translate(0 0)">
        <path id="Path_167057" fill="#86bcff" d="M1155.915 2286.466a78.565 78.565 0 0 0 15.194 11.44 93.584 93.584 0 0 0 18.636 7.42 116.175 116.175 0 0 0-18.636 9.076 94.589 94.589 0 0 0-15.194 12.194" transform="translate(-1155.915 -2286.465)"/>
        <g id="Group_88033" transform="translate(31.264 12.653)">
            <path id="Path_167047" d="M1856.34 490.016c-13.262-8.149-18.394-8.185-20.526-6.411-.821.686-1.078 1.538-3.327 3.822-3.469 3.519-5.263 3.928-5.3 5.426-.051 1.987 3.021 4.358 6.061 4.314 3-.043 5.805-2.446 6.622-5.928l11.852 8.175" class="cls-2" transform="translate(-1824.301 -466.714)"/>
            <path id="Path_167048" fill="#ff8e93" stroke="#fff" stroke-miterlimit="10" stroke-width="2px" d="M1834.925 483.426a52.764 52.764 0 0 1-2.078 10.522c-2.031 6.641-4.519 10.043-3.674 10.7.975.759 5.491-2.9 8.548-6.86a28.466 28.466 0 0 0 3.152-5.153 38.066 38.066 0 0 1 15.162 6.777 13.608 13.608 0 0 0-21.111-15.988z" transform="translate(-1820.06 -472.051)"/>
            <path id="Path_167049" fill="#fff" stroke="#2d2d2d" stroke-miterlimit="10" d="M1852.33 480.983a7.1 7.1 0 0 0-7 8.142 56.167 56.167 0 0 1-.26 17.36 44.363 44.363 0 0 1-5.206 15.285 42.465 42.465 0 0 1-7.623 9.72 6.953 6.953 0 0 0-2.173 4.417c-.43 4.65-.706 9.7-.725 15.1a170.82 170.82 0 0 0 1 19.06 5.587 5.587 0 0 0 4.84 4.84h34.5a5.415 5.415 0 0 0 3.855-1.858 5.278 5.278 0 0 0 1.191-3.189c.553-5.859.906-12.28.912-19.187.008-5.922-.238-11.488-.652-16.65a6.959 6.959 0 0 0-2.45-4.744 38.941 38.941 0 0 1-5.425-5.742 40.628 40.628 0 0 1-7.532-17.166 46.468 46.468 0 0 1-.249-17.243 7.041 7.041 0 0 0-7.003-8.145z" transform="translate(-1819.283 -470.63)"/>
            <path id="Path_167050" fill="#474747" stroke="#2d2d2d" stroke-miterlimit="10" d="M1835.346 488.191a23.659 23.659 0 0 1-5.769 0 3.168 3.168 0 0 1-2.187-.909 3.091 3.091 0 0 1-.909-2.187 10.135 10.135 0 0 1 0-3.625 3.163 3.163 0 0 1 .909-2.187 3.084 3.084 0 0 1 2.187-.909 20.429 20.429 0 0 1 2.69-.207 20.1 20.1 0 0 1 3.079.207 3.179 3.179 0 0 1 2.187.909 3.085 3.085 0 0 1 .908 2.187v3.625a3.1 3.1 0 0 1-3.095 3.096z" transform="translate(-1826.317 -477.188)"/>
            <path id="Path_167051" fill="#ff8e93" stroke="#2d2d2d" stroke-miterlimit="10" d="M1828.163 483.875a5.312 5.312 0 0 0 2.916 4.74l18.608 9.385a5.315 5.315 0 0 0 2.389.569h23.738a1.822 1.822 0 0 0 1.731-.852 1.9 1.9 0 0 0 .073-1.728 71.482 71.482 0 0 0-5.227-8.515 63.3 63.3 0 0 0-5.226-6.085 10.712 10.712 0 0 0-2.046-1.711 10.411 10.411 0 0 0-2.357-1.112 5.339 5.339 0 0 0-2.367-.509c-4.257-.173-8.758-.236-13.479-.146-4.75.086-9.274.323-13.547.656a5.31 5.31 0 0 0-5.207 5.306z" transform="translate(-1822.019 -477.873)"/>
            <path id="Path_167052" d="M1833.4 492.547l9.876 6.491a3.852 3.852 0 0 1 1.3 1.771 3.171 3.171 0 0 1-.154 2.763 3.229 3.229 0 0 1-2.845 1.235 3.388 3.388 0 0 1-1.385-.456c-3.286-1.821-1.292-.289-4.707-2.4-1.488-.915-3.332-2.114-5.423-3.605a3.679 3.679 0 0 1-1.3-4.424 3.383 3.383 0 0 1 2.537-1.741 3.561 3.561 0 0 1 2.101.366z" class="cls-2" transform="translate(-1821.327 -444.625)"/>
            <path id="Path_167053" d="M1834.924 490.732q5.923 3.89 11.848 7.786a4.612 4.612 0 0 1 1.56 2.124 3.807 3.807 0 0 1-.182 3.312 3.885 3.885 0 0 1-3.414 1.485 4.007 4.007 0 0 1-1.662-.549c-3.562-2-1.795-.489-5.741-2.9-1.742-1.062-3.932-2.483-6.408-4.3a4.417 4.417 0 0 1-1.568-5.306 4.067 4.067 0 0 1 3.045-2.087 4.251 4.251 0 0 1 2.522.435z" class="cls-2" transform="translate(-1820.085 -449.038)"/>
            <path id="Path_167054" d="M1836.547 488.949c2.453 1.411 4.934 2.86 7.766 4.53a32.249 32.249 0 0 1 4.827 3.749 5.406 5.406 0 0 1 1.657 2.256 4.038 4.038 0 0 1-.2 3.519 4.118 4.118 0 0 1-3.628 1.578 4.291 4.291 0 0 1-1.764-.582c-3.415-1.911-3.336-1.152-6.814-3.212a40.346 40.346 0 0 1-6.1-4.441 4.7 4.7 0 0 1-1.665-5.639 4.322 4.322 0 0 1 3.236-2.22 4.544 4.544 0 0 1 2.685.462z" class="cls-2" transform="translate(-1817.174 -453.257)"/>
            <path id="Path_167055" d="M1856.179 509.711c-.237-1.511.046-3.026-.833-5.456a14.966 14.966 0 0 0-4.623-6.288c-5.309-3.685-14.01 4.288-17.383 1.112-1.6-1.508-1.385-4.95 0-6.877 1.711-2.387 4.614-1.631 11.1-3.109 7.076-1.614 7.509-3.4 10.725-3.329 3.259.073 8.022 2.024 13.774 11.464l37.261 4.072a24.969 24.969 0 0 1-5.424 26.757l-25.028-8.359-7.92.373c-8.877-3.836-11.217-7.584-11.649-10.36z" class="cls-2" transform="translate(-1812.578 -459.503)"/>
        </g>
        <g id="Group_88034" transform="translate(52.77 82.009)">
            <path id="Path_37221" fill="#fff" stroke="#2d2d2d" stroke-linecap="round" stroke-miterlimit="10" d="M598.512 490.348c.007-.052.011-.093.011-.1a2 2 0 0 0-.781-1.412c-.827-.659-1.669-.316-2.014-.9a1.355 1.355 0 0 1 .031-1.113 2.29 2.29 0 0 1 2.465-1.472 1.273 1.273 0 0 1 .842.542c.273.49-.179.84-.12 1.622a2.412 2.412 0 0 0 1.4 1.948 2.607 2.607 0 0 0 .751.167 9.206 9.206 0 0 0 1.251-.084 5.447 5.447 0 0 1 1.043.084c.842.119 1.039.277 1.278.271a1.018 1.018 0 0 0 .14-.021 1.872 1.872 0 0 0 .918-1.669c-.032-1.171-1.335-1.548-1.168-2.169.156-.587 1.482-.876 2.5-.627a2.944 2.944 0 0 1 2.166 2.193 1.115 1.115 0 0 1-.09.932c-.427.5-1.41-.165-2.164.36a1.518 1.518 0 0 0-.571 1.533c.157.554.669.508 1.5 1.409a6.056 6.056 0 0 1 .834 1.168c.559 1.036.419 1.575.855 1.741a1.688 1.688 0 0 0 1.277-.233l.036-.023c.565-.357.519-.788 1.021-1.022a1.5 1.5 0 0 1 1.349.11 2.142 2.142 0 0 1 .329 2.881 1.576 1.576 0 0 1-1.132.693c-.476-.009-.588-.394-1.349-.657-.354-.122-.919-.316-1.241-.072-.373.284 0 .843-.208 1.874-.232 1.169-.923 1.549-.684 2.051a1.3 1.3 0 0 0 1.187.526c.676-.033.872-.552 1.518-.525a1.2 1.2 0 0 1 .9.421c.646.96-1.311 3.713-2.2 3.486-.307-.078-.543-.531-.631-.812-.133-.423.042-.58-.06-.916a1.475 1.475 0 0 0-1.529-.92.726.726 0 0 0-.2.06c-.363.155-.42.446-.746.849a3.272 3.272 0 0 1-.625.584 3.733 3.733 0 0 1-.71.418 1.023 1.023 0 0 0-.394.235 1.694 1.694 0 0 0-.107 1.892c.3.561.681.429.918.96a1.559 1.559 0 0 1-.167 1.5 1.9 1.9 0 0 1-2.9-.077 1.569 1.569 0 0 1-.167-1.064c.117-.737.594-.8.745-1.461a1.88 1.88 0 0 0-.619-1.788c-.561-.432-.977-.017-2.273-.241-1.325-.23-1.7-.8-2.256-.517a1.609 1.609 0 0 0-.73 1.4c.018.436.268.7.128 1.108a1.081 1.081 0 0 1-.459.542c-.8.48-2.368-.208-2.877-1.274a1.353 1.353 0 0 1-.127-1.041 1.167 1.167 0 0 1 .5-.584c.47-.269.793 0 1.335-.146a1.54 1.54 0 0 0 1.05-.926c.187-.692-.714-.968-1.331-2.438-.441-1.05-.342-1.752-.877-2.071a2.407 2.407 0 0 0-1.2-.309h-.037a1.661 1.661 0 0 0-.838.333c-.345.254-.272.373-.584.626a1.538 1.538 0 0 1-.772.364c-.663.018-1.341-1.057-1.481-2.033-.175-1.221.443-2.625 1.15-2.716a.951.951 0 0 1 .661.21c.34.271.225.588.511.932a1.715 1.715 0 0 0 1.172.481 2.053 2.053 0 0 0 1.411-.212c.433-.285.393-.628.894-1.657a5.7 5.7 0 0 1 .918-1.543c.592-.623 1.321-.926 1.424-1.661z" transform="translate(-590.34 -485.306)"/>
            <circle id="Ellipse_1" cx="2.885" cy="2.885" r="2.885" class="cls-8" transform="translate(8.013 6.635)"/>
            <circle id="Ellipse_2" cx="1.641" cy="1.641" r="1.641" class="cls-8" transform="translate(12.659 13.463)"/>
        </g>
        <g id="Ellipse_13828" class="cls-9" transform="translate(45.997 74.182)">
            <circle cx="19.092" cy="19.092" r="19.092"/>
            <circle cx="19.092" cy="19.092" r="18.592" fill="none"/>
        </g>
        <path id="Line_484" d="M0 0L25.207 25.207" class="cls-9" transform="translate(51.282 81.603)"/>
    </g>
</svg>
