<svg width="119" height="125" viewBox="0 0 119 125" fill="none" xmlns="http://www.w3.org/2000/svg">
<path opacity="0.05" d="M43.2846 111.738C28.9091 101.882 16.4795 89.4543 6.62234 75.0806C2.45829 70.8183 0.104258 65.1109 0.0528058 59.1527C0.0453476 56.1963 0.621814 53.2676 1.74919 50.5345C2.87656 47.8014 4.53264 45.3179 6.62234 43.2263C17.1396 29.4158 29.4714 17.0865 43.2846 6.57176C47.5466 2.40752 53.2542 0.0527049 59.2131 7.10861e-05C62.1699 -0.00736945 65.099 0.569358 67.8323 1.69713C70.5655 2.8249 73.049 4.4815 75.1401 6.57176C88.7598 17.306 101.066 29.6092 111.802 43.2263C115.968 47.4871 118.323 53.1944 118.375 59.1527C118.382 62.1096 117.805 65.0388 116.677 67.7721C115.55 70.5055 113.893 72.9892 111.802 75.0806C101.076 88.7082 88.7694 101.014 75.1401 111.738C72.426 114.409 69.0966 116.371 65.4454 117.451C63.4172 118.04 61.3146 118.334 59.2026 118.322C56.55 118.262 53.9272 117.749 51.4475 116.805C48.4232 115.662 45.6506 113.941 43.2846 111.738Z" fill="url(#paint0_linear_1286_15574)"/>
<path d="M72.5749 8.67485L70.5091 8.14136C69.2544 7.81735 67.9746 8.5718 67.6506 9.82646L62.0945 31.3413C61.7705 32.5959 62.525 33.8757 63.7796 34.1997L65.8454 34.7332C67.1001 35.0572 68.3799 34.3028 68.7039 33.0481L74.26 11.5333C74.584 10.2786 73.8295 8.99886 72.5749 8.67485Z" fill="#1778F2" stroke="#050A4E" stroke-width="0.887889" stroke-miterlimit="10"/>
<path d="M24.8203 92.3125L21.2607 104.019L32.1663 118.294L39.452 119.553L45.046 113.836L24.8203 92.3125Z" fill="white"/>
<path d="M78.751 75.7078C77.9467 79.2071 77.2329 82.3175 74.5316 83.6052C73.7666 83.9869 72.9241 84.1869 72.0692 84.1898C71.2142 84.1926 70.3699 83.9982 69.6024 83.6215C66.0779 81.6378 66.9352 75.2333 67.2109 73.1626C67.596 70.2864 68.048 66.9016 70.933 65.0412C73.0163 63.6981 76.3533 63.1594 78.3106 64.7265C80.8118 66.7254 79.797 71.1499 78.751 75.7078Z" fill="white" stroke="#211F20" stroke-width="0.887889" stroke-miterlimit="10"/>
<path d="M30.7454 41.8613C27.6916 42.1722 23.8299 47.4539 20.7762 70.6325C20.133 73.5138 17.5927 86.3341 25.1225 97.6817C27.6339 101.42 30.8829 104.606 34.67 107.044C39.2479 110.052 44.5381 111.798 50.0067 112.108C57.9922 112.41 65.6327 106.326 80.929 94.1748C83.3206 92.2792 86.2309 89.8586 86.1957 86.5154C86.1592 83.1507 83.1445 79.5923 80.1097 79.3871C76.6846 79.1605 75.7632 83.3295 71.5502 85.7349C63.8567 90.1317 51.9287 84.9646 45.3291 79.4022C43.5077 77.8678 34.173 69.9993 35.6445 62.2153C36.1921 59.3201 38.0196 57.5969 38.0913 52.9396C38.2963 50.3883 37.6583 47.8402 36.2751 45.6866C36.119 45.4664 33.4013 41.5894 30.7454 41.8613Z" fill="white" stroke="#050A4E" stroke-width="0.887889" stroke-miterlimit="10"/>
<path d="M81.5064 42.2971C73.4781 50.7811 66.8888 63.8331 69.5019 65.8357C73.404 68.819 99.3228 48.3391 98.4165 38.3057C98.3671 37.3039 98.0102 36.3417 97.3944 35.55C96.7786 34.7584 95.934 34.1756 94.9753 33.8812C90.4752 32.8213 83.8024 39.8715 81.5064 42.2971Z" fill="white" stroke="#050A4E" stroke-width="0.887889" stroke-miterlimit="10"/>
<path d="M83.7572 92.053C86.7685 88.6746 87.1116 84.0658 84.5236 81.759C81.9356 79.4522 77.3964 80.3209 74.3851 83.6993C71.3738 87.0777 71.0306 91.6865 73.6187 93.9933C76.2067 96.3001 80.7459 95.4314 83.7572 92.053Z" fill="white" stroke="#050A4E" stroke-width="0.887889" stroke-miterlimit="10"/>
<path d="M34.5718 112.756L52.7407 117.363C57.7165 118.621 63.2512 113.882 65.0399 106.826C68.1175 98.2662 71.2868 88.2956 74.1378 77.0853C77.0329 65.6823 79.0343 55.2498 80.4316 46.1327C81.2527 42.9208 81.1278 39.54 80.0717 36.3975C79.6702 35.1265 78.9661 33.972 78.0198 33.0334C77.0734 32.0947 75.9133 31.3999 74.639 31.0088L56.469 26.4018C51.4944 25.1431 45.9597 29.8823 44.1697 36.9388C41.6611 43.8783 39.1537 51.5705 36.8225 59.9739C33.3858 72.3547 30.7004 84.9319 28.7814 97.6368C28.0771 100.443 28.0728 103.378 28.7688 106.186C29.087 107.689 29.7889 109.084 30.8057 110.235C31.8225 111.386 33.1199 112.254 34.5718 112.756V112.756Z" fill="#1778F2" stroke="#050A4E" stroke-width="0.887889" stroke-miterlimit="10"/>
<path d="M82.599 82.8382C85.6103 79.4598 85.9534 74.851 83.3654 72.5442C80.7774 70.2373 76.2382 71.106 73.2269 74.4844C70.2156 77.8628 69.8724 82.4716 72.4605 84.7784C75.0485 87.0853 79.5877 86.2166 82.599 82.8382Z" fill="white" stroke="#050A4E" stroke-width="0.887889" stroke-miterlimit="10"/>
<path d="M43.5457 115.719C42.8325 116.248 42.1595 116.829 41.5319 117.457C39.6856 119.322 38.2485 121.551 37.3125 124.003" fill="white"/>
<path d="M43.5457 115.719C42.8325 116.248 42.1595 116.829 41.5319 117.457C39.6856 119.322 38.2485 121.551 37.3125 124.003" stroke="#050A4E" stroke-width="0.887889" stroke-miterlimit="10" stroke-linecap="round"/>
<path d="M15.1582 104.608C18.6481 102.101 21.5125 98.8223 23.5278 95.0273Z" fill="white"/>
<path d="M15.1582 104.608C18.6481 102.101 21.5125 98.8223 23.5278 95.0273" stroke="#050A4E" stroke-width="0.887889" stroke-miterlimit="10" stroke-linecap="round"/>
<path d="M36.3112 110.338L51.8163 114.27C56.0608 115.346 60.9158 110.781 62.6038 104.126C65.4297 96.0283 68.3637 86.6166 71.0524 76.0431C73.7864 65.2884 75.725 55.4639 77.1172 46.8855C77.8891 43.8892 77.8542 40.742 77.0164 37.7634C76.7382 36.6224 76.1747 35.5708 75.3787 34.7073C74.5828 33.8438 73.5806 33.1966 72.466 32.8266L56.961 28.8955C52.7152 27.8193 47.8614 32.3835 46.1734 39.0385C43.8699 45.5991 41.5524 52.8671 39.376 60.7909C36.1594 72.4709 33.5852 84.3183 31.6649 96.28C31.0017 98.9042 30.9357 101.644 31.4713 104.297C32.5916 109.146 35.8152 110.19 36.3112 110.338Z" fill="white" stroke="#050A4E" stroke-width="0.887889" stroke-miterlimit="10"/>
<path d="M81.6107 70.3694C84.622 66.991 84.9652 62.3822 82.3771 60.0754C79.7891 57.7686 75.2499 58.6373 72.2386 62.0157C69.2273 65.3941 68.8841 70.0029 71.4722 72.3097C74.0602 74.6165 78.5994 73.7478 81.6107 70.3694Z" fill="white" stroke="#050A4E" stroke-width="0.887889" stroke-miterlimit="10"/>
<path d="M60.5058 48.0954C59.1628 47.529 51.7964 56.7002 54.4801 60.7194C55.0367 61.4304 55.7644 61.9889 56.595 62.343C57.4256 62.6972 58.3324 62.8354 59.2308 62.7447C60.3374 62.6631 61.3666 62.1473 62.0943 61.3097C62.7553 60.3848 63.032 59.2396 62.866 58.115C62.7175 56.1967 61.7621 55.6529 61.0433 53.7963C59.8072 50.6041 61.1478 48.3698 60.5058 48.0954Z" fill="#F40009" stroke="#050A4E" stroke-width="0.887889" stroke-miterlimit="10"/>
<path d="M43.1748 77.2227L60.6726 81.7416" stroke="#050A4E" stroke-width="0.887889" stroke-miterlimit="10" stroke-linecap="round"/>
<path d="M41.29 84.5234L58.7879 89.0423" stroke="#050A4E" stroke-width="0.887889" stroke-miterlimit="10" stroke-linecap="round"/>
<path d="M39.3223 92.1406L56.8201 96.6595" stroke="#050A4E" stroke-width="0.887889" stroke-miterlimit="10" stroke-linecap="round"/>
<path d="M95.1272 41.0745C96.401 40.4313 104.335 47.7988 102.154 53.4103C101.818 54.3378 101.248 55.162 100.497 55.8021C99.7468 56.4421 98.8427 56.8758 97.8739 57.0606C96.8035 57.1142 95.74 56.8594 94.8101 56.3266C93.8801 55.7938 93.1227 55.0053 92.6275 54.0547C91.9507 52.7358 91.7584 51.2211 92.0848 49.775C92.3336 48.8172 92.7046 47.8953 93.1887 47.0322C93.6922 46.0479 93.89 45.8993 94.2046 45.2813C95.3816 43.0105 94.5859 41.349 95.1272 41.0745Z" fill="#F40009" stroke="#050A4E" stroke-width="0.887889" stroke-miterlimit="10" stroke-linecap="round"/>
<defs>
<linearGradient id="paint0_linear_1286_15574" x1="59.2138" y1="0" x2="59.2138" y2="118.322" gradientUnits="userSpaceOnUse">
<stop stop-color="#1778F2"/>
<stop offset="1" stop-color="#F40009"/>
</linearGradient>
</defs>
</svg>
