<svg xmlns="http://www.w3.org/2000/svg" width="51.863" height="58.745" viewBox="0 0 51.863 58.745">
  <defs>
    <style>
      .cls-1, .cls-6 {
        fill: #fff;
      }

      .cls-1, .cls-2, .cls-3, .cls-4 {
        stroke: #2d2d2d;
      }

      .cls-1, .cls-2, .cls-3, .cls-4, .cls-5 {
        stroke-miterlimit: 10;
      }

      .cls-2 {
        fill: #86bcff;
      }

      .cls-3 {
        fill: #1778f2;
      }

      .cls-3, .cls-4 {
        stroke-linecap: round;
      }

      .cls-4 {
        fill: none;
      }

      .cls-5 {
        fill: #ff8e93;
        stroke: #000;
      }
    </style>
  </defs>
  <g id="Group_110981" data-name="Group 110981" transform="translate(-735.324 -5072.636)">
    <g id="Group_110966" data-name="Group 110966" transform="translate(704.536 5044.675)">
      <path id="Path_38801" data-name="Path 38801" class="cls-1" d="M42.335,39.335a3.324,3.324,0,0,1-1.65,4.4l-.118.05c-1.583.306-2.93-1.858-3.008-1.988-.188-.311-1.255-2.07-.407-3.262.748-1.055,2.413-.84,2.652-.815A3.4,3.4,0,0,1,42.335,39.335Z" transform="translate(3.782 6.259)"/>
      <path id="Path_38802" data-name="Path 38802" class="cls-1" d="M50.535,39.306a3.324,3.324,0,0,0,1.65,4.4l.118.05c1.581.306,2.929-1.86,3-1.988.19-.311,1.255-2.07.408-3.263-.749-1.054-2.411-.84-2.652-.815A3.391,3.391,0,0,0,50.535,39.306Z" transform="translate(12.903 6.238)"/>
      <path id="Path_38803" data-name="Path 38803" class="cls-2" d="M77.319,64.108c-1.074,6.617-13.745,9.724-21.95,9.941-9.845.259-23.062-3.389-24.04-9.941-.531-3.554,2.71-6.822,5.728-9.865a22.981,22.981,0,0,1,32.42-2.285h0q.766.665,1.469,1.393C73.755,55.965,78,59.915,77.319,64.108Z" transform="translate(0 12.137)"/>
      <path id="Path_38804" data-name="Path 38804" class="cls-3" d="M36.978,48.967a11.7,11.7,0,0,0-.235,3.89,11.889,11.889,0,0,0,2.074,5.485" transform="translate(3.677 13.932)"/>
      <path id="Path_38805" data-name="Path 38805" class="cls-3" d="M52.251,53.588c.06-.672.1-1.388.092-2.164a22.588,22.588,0,0,0-.264-3.263" transform="translate(14.157 13.384)"/>
      <path id="Path_38806" data-name="Path 38806" class="cls-1" d="M41.377,55.8a2.557,2.557,0,1,1-2.557-2.559A2.558,2.558,0,0,1,41.377,55.8Z" transform="translate(3.396 16.839)"/>
      <ellipse id="Ellipse_2854" data-name="Ellipse 2854" class="cls-1" cx="10.843" cy="15.175" rx="10.843" ry="15.175" transform="translate(43.847 30.353)"/>
      <path id="Path_38808" data-name="Path 38808" class="cls-4" d="M58.321,64.967c1.311.593,2.206.657,2.739.26,2.292-1.712-.551-13.211-5.407-13.8-4.7-.575-10.3,9.255-8.4,11.974a3.089,3.089,0,0,0,2.636.943" transform="translate(10.613 15.589)"/>
      <circle id="Ellipse_2855" data-name="Ellipse 2855" class="cls-1" cx="1.611" cy="1.611" r="1.611" transform="translate(59.515 78.498)"/>
      <circle id="Ellipse_2856" data-name="Ellipse 2856" class="cls-1" cx="1.611" cy="1.611" r="1.611" transform="translate(66.62 78.906)"/>
      <path id="Path_38809" data-name="Path 38809" class="cls-1" d="M38.957,44.031a35.681,35.681,0,0,0,7.815-2.857c4.831-2.45,7.34-5.155,9.578-4.145.733.336,1.166,1.033,2.04,2.447a19.065,19.065,0,0,1,2.423,6.049c2.006-5.685.413-11.7-3.648-14.75a12.1,12.1,0,0,0-9.514-2.04,14.53,14.53,0,0,0-4.621,2.04,10.054,10.054,0,0,0-2.857,2.447,9.259,9.259,0,0,0-1.628,3.554A12.775,12.775,0,0,0,38.957,44.031Z" transform="translate(4.717 0)"/>
    </g>
    <g id="Group_110980" data-name="Group 110980" transform="translate(-12570.486 -5867.257)">
      <g id="Group_104556" data-name="Group 104556" transform="translate(13336.793 10974.822)">
        <path id="Path_77484" data-name="Path 77484" class="cls-5" d="M757.4,139.256a1.316,1.316,0,0,1,1.279-1.2,12.367,12.367,0,0,0,4.212-.769,11,11,0,0,0,2.29-1.4l1.313-1.012a1.446,1.446,0,0,1,1.845.039,14.239,14.239,0,0,0,3.375,2.237,2.2,2.2,0,0,0,.233.093,12.319,12.319,0,0,0,4.112.655,1.316,1.316,0,0,1,1.3,1.174c.29,2.39.657,7.739-1.165,11.54a16.813,16.813,0,0,1-8.172,7.145,1.288,1.288,0,0,1-1.036.009,16.671,16.671,0,0,1-8.181-7C756.919,147,757.163,141.655,757.4,139.256Z" transform="translate(-757.238 -134.56)"/>
      </g>
      <path id="Path_184926" data-name="Path 184926" class="cls-6" d="M763.649,146.831a1.054,1.054,0,0,1-.7-.264,18.536,18.536,0,0,1-1.5-1.491,18.313,18.313,0,0,1-1.293-1.629,1.054,1.054,0,0,1,1.724-1.213,15.7,15.7,0,0,0,1.14,1.437q.339.379.709.741c.992-.739,1.964-1.521,2.9-2.329,1.136-.983,2.242-2.025,3.284-3.1a1.054,1.054,0,0,1,1.512,1.467c-1.085,1.117-2.235,2.2-3.418,3.225-1.2,1.038-2.459,2.032-3.743,2.956A1.052,1.052,0,0,1,763.649,146.831Z" transform="translate(12581.683 10843.467)"/>
    </g>
  </g>
</svg>
