<svg xmlns="http://www.w3.org/2000/svg" width="74.53" height="68.224" viewBox="0 0 74.53 68.224">
    <defs>
        <style>
            .cls-5{stroke:none}.cls-6{fill:none}
        </style>
    </defs>
    <g id="Group_110920" transform="translate(-669.5 -663.251)">
        <g id="Group_110919" transform="translate(670 663.762)">
            <path id="Path_38797" fill="#fff" stroke="#2d2d2d" stroke-miterlimit="10" d="M1826.149 405.918a13.316 13.316 0 0 1-8.737-4.368 97.1 97.1 0 0 1-14.052-14.689c-1.6-1.769-13.708-15.336-14.318-26.379a20.622 20.622 0 0 1 .618-6.189 19.444 19.444 0 0 1 7.458-10.2c7.946-5.233 20.729-3.485 25.5 2.463 1.144 1.433 2.327 3.72 4.2 3.7s2.9-2.269 4.206-3.867a19.3 19.3 0 0 1 22.863-3.026 17.569 17.569 0 0 1 6.885 8.741 19.22 19.22 0 0 1 1.113 8.368c-.659 11.511-10.289 22.4-12.323 24.625a102.658 102.658 0 0 1-15.367 16.779 12.587 12.587 0 0 1-8.046 4.042z" transform="translate(-1789.015 -340.924)"/>
            <g id="Group_78599" transform="translate(42.812 36.495)">
                <g id="Ellipse_13590" fill="#ff8e93" stroke="#2d2d2d" transform="translate(0 0)">
                    <circle cx="15.609" cy="15.609" r="15.609" class="cls-5"/>
                    <circle cx="15.609" cy="15.609" r="15.109" class="cls-6"/>
                </g>
            </g>
        </g>
        <path id="Path_186821" fill="#fff" d="M1846.7 615.967h-2.723a1.029 1.029 0 0 1-1.03-1.03v-2.722a1.744 1.744 0 0 0-1.361-1.743 1.674 1.674 0 0 0-1.98 1.642v2.823a1.029 1.029 0 0 1-1.03 1.03h-2.722a1.742 1.742 0 0 0-1.743 1.361 1.674 1.674 0 0 0 1.643 1.98h2.823a1.031 1.031 0 0 1 1.03 1.03v2.723a1.741 1.741 0 0 0 1.361 1.743 1.674 1.674 0 0 0 1.979-1.642v-2.823a1.031 1.031 0 0 1 1.03-1.03h2.823a1.674 1.674 0 0 0 1.642-1.98 1.743 1.743 0 0 0-1.742-1.362z" transform="translate(-1112.777 98.606)"/>
        <g id="Ellipse_18678" fill="#86bcff" stroke="#2d2d2d" transform="translate(683 674.763)">
            <circle cx="5" cy="5" r="5" class="cls-5"/>
            <circle cx="5" cy="5" r="4.5" class="cls-6"/>
        </g>
    </g>
</svg>
