<svg width="15" height="17" viewBox="0 0 15 17" fill="none" xmlns="http://www.w3.org/2000/svg">
<path d="M12.6017 7.72768C12.5763 7.57544 12.5101 7.43293 12.4101 7.3154C12.31 7.19787 12.1799 7.10973 12.0337 7.06038C10.6941 6.60673 9.27219 6.44795 7.86546 6.59484C6.45941 6.50068 5.04787 6.65832 3.69724 7.06038C3.54466 7.11429 3.40981 7.2091 3.30746 7.33444C3.2051 7.45978 3.13916 7.61085 3.11684 7.77113C2.84931 9.0983 2.7518 10.4541 2.82665 11.8059C2.76849 13.119 2.84074 14.4347 3.04234 15.7336C3.05884 15.9118 3.12487 16.0817 3.23291 16.2243C3.34096 16.3669 3.48675 16.4765 3.65379 16.5406C4.49176 16.7795 5.35846 16.9027 6.22982 16.9068V14.9065C6.21964 14.3176 6.24141 13.7286 6.29501 13.142C6.29691 13.0177 6.34415 12.8982 6.42788 12.8062C6.5116 12.7142 6.62604 12.6559 6.7497 12.6423C7.11499 12.5635 7.48945 12.5359 7.86236 12.5601C8.2368 12.5376 8.61258 12.5652 8.97969 12.6423C9.10413 12.654 9.21976 12.7117 9.30388 12.8041C9.388 12.8965 9.43453 13.0171 9.43438 13.142C9.43438 13.142 9.498 13.7116 9.498 14.8941C9.498 16.0766 9.45145 16.9115 9.45145 16.9115C10.2943 16.8942 11.1331 16.7902 11.9546 16.6011C12.127 16.5521 12.2829 16.4572 12.4056 16.3266C12.5283 16.196 12.6132 16.0345 12.6513 15.8593C12.9221 14.5279 13.0062 13.1652 12.9012 11.8106C12.9453 10.4429 12.8449 9.07432 12.6017 7.72768Z" fill="#FF7265"/>
<path d="M14.4864 7.32576C14.4864 7.32576 13.7508 6.38688 11.9724 4.13361C10.9601 2.81238 9.86763 1.55457 8.70111 0.367296C8.48688 0.187149 8.21596 0.0883789 7.93606 0.0883789C7.65615 0.0883789 7.38523 0.187149 7.17101 0.367296C5.9437 1.54629 4.79494 2.80443 3.73213 4.13361C2.2346 6.07031 1.16694 7.50267 1.16694 7.50267C1.07799 7.62522 1.02146 7.76825 1.0026 7.9185C0.983741 8.06874 1.00316 8.22132 1.05905 8.36205C1.11494 8.50279 1.20549 8.62712 1.32229 8.72349C1.4391 8.81986 1.57837 8.88514 1.72716 8.91328C1.91183 8.94587 5.1412 9.27176 7.7995 9.26866C10.4578 9.26556 13.6965 8.93656 13.9262 8.91328C14.0951 8.88391 14.2531 8.81009 14.384 8.69941C14.5149 8.58873 14.614 8.44517 14.671 8.28351C14.7281 8.12185 14.741 7.94792 14.7086 7.77959C14.6761 7.61126 14.5994 7.45462 14.4864 7.32576Z" fill="#FF7265"/>
</svg>
