<svg width="15" height="17" viewBox="0 0 15 17" fill="none" xmlns="http://www.w3.org/2000/svg">
<g clip-path="url(#clip0_1587_17490)">
<path d="M4.70031 1.98145C4.76517 2.6192 4.8408 3.54267 4.8547 4.66222C4.93557 5.61139 4.88363 6.56719 4.70031 7.502C4.30216 8.56143 3.72158 9.54292 2.98476 10.402C2.30246 11.4297 1.69302 12.5041 1.16101 13.6171C1.07198 13.7699 1.01754 13.9402 1.00154 14.1163C0.985528 14.2924 1.00844 14.4699 1.06845 14.6362C1.14731 14.8196 1.26925 14.9811 1.42416 15.107C1.57906 15.2329 1.76219 15.3193 1.9578 15.3589C2.67586 15.4176 3.69039 15.4948 4.91803 15.5643C5.05701 15.572 6.13954 15.6322 7.58646 15.6585C8.65729 15.6666 9.72625 15.5663 10.7768 15.3589C10.9875 15.3457 11.1931 15.2893 11.3812 15.1934C11.5692 15.0975 11.7357 14.9641 11.8702 14.8014C11.9601 14.6084 12.0082 14.3987 12.0113 14.1858C12.0145 13.9729 11.9727 13.7617 11.8886 13.5661C11.1644 11.3224 9.01635 10.0514 8.31219 7.54365C8.10479 6.6763 8.01403 5.78526 8.04207 4.89389C8.02496 3.86321 8.10969 2.83332 8.29523 1.81934L4.70031 1.98145Z" fill="#1778F2"/>
<path d="M4.00858 0.911154C3.93262 1.04783 3.8944 1.20233 3.89793 1.35866C3.90146 1.51499 3.94651 1.66749 4.02856 1.8006C4.18298 2.04922 4.4919 2.21298 6.42215 2.21144C8.35241 2.20989 8.64428 2.04767 8.79407 1.8006C8.87022 1.66838 8.91018 1.51849 8.91018 1.36591C8.91018 1.21334 8.87022 1.06344 8.79407 0.93123C8.56398 0.568342 8.08989 0.606927 6.34185 0.602294C4.68646 0.594573 4.22322 0.557531 4.00858 0.911154Z" fill="#1778F2"/>
<path d="M2.34078 14.0123C2.64963 14.7566 4.09653 14.7658 6.87764 14.7519C10.3845 14.7334 10.7382 14.2701 10.8494 14.0323C11.0578 13.5691 10.7629 13.0271 10.2316 12.0527C9.87075 11.1724 9.21598 10.4445 8.37868 9.99275C7.82304 9.77502 7.22608 9.68324 6.6307 9.72404C6.08473 9.69229 5.53801 9.77322 5.02467 9.96184C4.14529 10.4151 3.4493 11.158 3.05426 12.065C2.46438 13.0811 2.16629 13.5953 2.34078 14.0123Z" fill="#1778F2"/>
<path d="M7.59726 12.1962L10.2085 15.6506C10.2465 15.7008 10.2957 15.7416 10.352 15.7696C10.4084 15.7976 10.4706 15.8122 10.5336 15.8122C10.5965 15.8122 10.6587 15.7976 10.7151 15.7696C10.7715 15.7416 10.8206 15.7008 10.8586 15.6506L13.4699 12.1962C13.8838 11.6501 14.137 10.9993 14.2011 10.317C14.2652 9.6348 14.1376 8.94821 13.8327 8.33454C13.5278 7.72087 13.0577 7.20449 12.4752 6.8435C11.8928 6.48252 11.2211 6.29126 10.5359 6.29126C9.85063 6.29126 9.17899 6.48252 8.59653 6.8435C8.01408 7.20449 7.54394 7.72087 7.23903 8.33454C6.93412 8.94821 6.80653 9.6348 6.87064 10.317C6.93475 10.9993 7.188 11.6501 7.60189 12.1962H7.59726Z" fill="#1778F2" stroke="#EEF4FF" stroke-width="1.08094"/>
<path d="M10.4633 11.1585C11.3698 11.1585 12.1048 10.4235 12.1048 9.51698C12.1048 8.61041 11.3698 7.87549 10.4633 7.87549C9.5567 7.87549 8.82178 8.61041 8.82178 9.51698C8.82178 10.4235 9.5567 11.1585 10.4633 11.1585Z" fill="#EEF4FF"/>
</g>
<defs>
<clipPath id="clip0_1587_17490">
<rect width="13.9998" height="15.8111" fill="white" transform="translate(0.99585 0.594482)"/>
</clipPath>
</defs>
</svg>
