<svg width="49" height="68" viewBox="0 0 49 68" fill="none" xmlns="http://www.w3.org/2000/svg">
<g opacity="0.4" filter="url(#filter0_f_2048_12660)">
<ellipse cx="24.503" cy="64.5602" rx="12.8077" ry="1.76922" fill="black"/>
<path d="M36.8436 64.443C36.8438 64.443 36.8426 64.4449 36.8391 64.4485C36.8417 64.4448 36.8434 64.443 36.8436 64.443ZM36.149 64.3469C36.3825 64.4231 36.5547 64.4958 36.6741 64.5602C36.5547 64.6247 36.3825 64.6973 36.149 64.7736C35.5427 64.9716 34.6391 65.1574 33.491 65.316C31.2022 65.6321 28.0242 65.8295 24.503 65.8295C20.9818 65.8295 17.8038 65.6321 15.515 65.316C14.3669 65.1574 13.4633 64.9716 12.857 64.7736C12.6235 64.6973 12.4513 64.6247 12.332 64.5602C12.4513 64.4958 12.6235 64.4231 12.857 64.3469C13.4633 64.1489 14.3669 63.9631 15.515 63.8045C17.8038 63.4883 20.9818 63.291 24.503 63.291C28.0242 63.291 31.2022 63.4883 33.491 63.8045C34.6391 63.9631 35.5427 64.1489 36.149 64.3469ZM12.1624 64.443C12.1626 64.443 12.1643 64.4448 12.1669 64.4485C12.1635 64.4449 12.1622 64.443 12.1624 64.443ZM12.1624 64.6775C12.1622 64.6774 12.1635 64.6756 12.1669 64.672C12.1643 64.6757 12.1626 64.6775 12.1624 64.6775ZM36.8391 64.672C36.8426 64.6756 36.8438 64.6774 36.8436 64.6775C36.8434 64.6775 36.8417 64.6757 36.8391 64.672Z" stroke="black"/>
</g>
<g filter="url(#filter1_d_2048_12660)">
<path d="M14.0243 46.0456C12.6956 44.2123 11.4941 42.287 10.4289 40.284C8.8328 37.5124 7.62291 34.5294 6.83357 31.4202C5.67507 27.3749 5.72514 23.0714 6.97752 19.0551C8.39126 14.9682 11.084 11.4641 14.6439 9.07879C17.9262 6.94381 21.7706 5.87404 25.6659 6.01182C29.7414 6.31338 33.6099 7.95298 36.6878 10.6832C39.9865 13.7382 42.1239 17.873 42.7267 22.3657C43.1591 25.2125 43.0778 28.1155 42.4868 30.9327C41.6435 34.2997 40.2686 37.5056 38.4157 40.4259C37.2981 42.4707 36.049 44.4384 34.6763 46.316C30.0903 52.5518 27.5378 56.0308 24.3002 55.9998C21.1803 55.9821 18.7935 52.667 14.0243 46.0456Z" fill="white"/>
</g>
<path d="M24.4969 37.2814C31.649 37.2814 37.4469 31.5148 37.4469 24.4014C37.4469 17.288 31.649 11.5215 24.4969 11.5215C17.3448 11.5215 11.5469 17.288 11.5469 24.4014C11.5469 31.5148 17.3448 37.2814 24.4969 37.2814Z" fill="#1778F2"/>
<path d="M24.5031 18.8789C25.6008 18.8789 26.6738 19.2026 27.5865 19.8092C28.4992 20.4157 29.2106 21.2778 29.6307 22.2865C30.0507 23.2951 30.1606 24.405 29.9465 25.4758C29.7323 26.5465 29.2037 27.5301 28.4276 28.3021C27.6514 29.0741 26.6625 29.5998 25.5859 29.8128C24.5093 30.0258 23.3934 29.9165 22.3792 29.4987C21.3651 29.0809 20.4983 28.3734 19.8885 27.4656C19.2786 26.5579 18.9531 25.4906 18.9531 24.3989C18.9531 22.9349 19.5379 21.5309 20.5787 20.4957C21.6195 19.4605 23.0312 18.8789 24.5031 18.8789Z" fill="#FFF8C7"/>
<defs>
<filter id="filter0_f_2048_12660" x="10.6953" y="61.791" width="27.6152" height="5.53857" filterUnits="userSpaceOnUse" color-interpolation-filters="sRGB">
<feFlood flood-opacity="0" result="BackgroundImageFix"/>
<feBlend mode="normal" in="SourceGraphic" in2="BackgroundImageFix" result="shape"/>
<feGaussianBlur stdDeviation="0.5" result="effect1_foregroundBlur_2048_12660"/>
</filter>
<filter id="filter1_d_2048_12660" x="0" y="0" width="49" height="62" filterUnits="userSpaceOnUse" color-interpolation-filters="sRGB">
<feFlood flood-opacity="0" result="BackgroundImageFix"/>
<feColorMatrix in="SourceAlpha" type="matrix" values="0 0 0 0 0 0 0 0 0 0 0 0 0 0 0 0 0 0 127 0" result="hardAlpha"/>
<feOffset/>
<feGaussianBlur stdDeviation="3"/>
<feComposite in2="hardAlpha" operator="out"/>
<feColorMatrix type="matrix" values="0 0 0 0 0 0 0 0 0 0 0 0 0 0 0 0 0 0 0.25 0"/>
<feBlend mode="normal" in2="BackgroundImageFix" result="effect1_dropShadow_2048_12660"/>
<feBlend mode="normal" in="SourceGraphic" in2="effect1_dropShadow_2048_12660" result="shape"/>
</filter>
</defs>
</svg>
