<svg xmlns="http://www.w3.org/2000/svg" width="14" height="14" viewBox="0 0 14 14" fill="none">
  <path d="M6.98874 12.9864C5.99219 12.9883 5.01928 12.683 4.20246 12.1121C4.11149 12.0487 4.04944 11.9517 4.02995 11.8426C4.01046 11.7334 4.03513 11.621 4.09853 11.53C4.16194 11.4391 4.25888 11.377 4.36803 11.3575C4.47719 11.338 4.58962 11.3627 4.68059 11.4261C5.2864 11.8479 5.99619 12.0956 6.73288 12.1424C7.46957 12.1892 8.20501 12.0333 8.85932 11.6915C9.51363 11.3498 10.0618 10.8353 10.4443 10.204C10.8269 9.57266 11.0291 8.84859 11.0291 8.11041C11.0291 7.37222 10.8269 6.64815 10.4443 6.01681C10.0618 5.38547 9.51363 4.871 8.85932 4.52927C8.20501 4.18753 7.46957 4.0316 6.73288 4.07839C5.99619 4.12519 5.2864 4.37293 4.68059 4.79471C4.58962 4.85811 4.47719 4.88278 4.36803 4.86329C4.25888 4.8438 4.16194 4.78174 4.09853 4.69078C4.03513 4.59981 4.01046 4.48738 4.02995 4.37822C4.04944 4.26907 4.11149 4.17212 4.20246 4.10872C4.83055 3.67142 5.55276 3.38812 6.31065 3.28172C7.06854 3.17533 7.84084 3.24883 8.56505 3.49629C9.28927 3.74374 9.94507 4.1582 10.4794 4.70612C11.0137 5.25405 11.4116 5.92006 11.6407 6.65027C11.8699 7.38048 11.924 8.15439 11.7986 8.90938C11.6732 9.66436 11.3718 10.3792 10.9189 10.9961C10.466 11.613 9.87416 12.1147 9.1914 12.4604C8.50863 12.8062 7.75406 12.9864 6.98874 12.9864Z" fill="#828282"/>
  <path d="M4.20422 8.8058H1.9752C1.86435 8.8058 1.75805 8.76176 1.67967 8.68338C1.60129 8.605 1.55726 8.4987 1.55726 8.38785C1.55726 8.277 1.60129 8.1707 1.67967 8.09232C1.75805 8.01394 1.86435 7.9699 1.9752 7.9699H4.20422C4.31506 7.9699 4.42137 8.01394 4.49975 8.09232C4.57813 8.1707 4.62216 8.277 4.62216 8.38785C4.62216 8.4987 4.57813 8.605 4.49975 8.68338C4.42137 8.76176 4.31506 8.8058 4.20422 8.8058ZM4.58315 7.13401H1.41794C1.3071 7.13401 1.20079 7.08998 1.12241 7.0116C1.04403 6.93322 1 6.82691 1 6.71607C1 6.60522 1.04403 6.49892 1.12241 6.42054C1.20079 6.34216 1.3071 6.29812 1.41794 6.29812H4.58315C4.694 6.29812 4.8003 6.34216 4.87868 6.42054C4.95706 6.49892 5.0011 6.60522 5.0011 6.71607C5.0011 6.82691 4.95706 6.93322 4.87868 7.0116C4.8003 7.08998 4.694 7.13401 4.58315 7.13401ZM4.76148 10.4776H1.41794C1.3071 10.4776 1.20079 10.4335 1.12241 10.3552C1.04403 10.2768 1 10.1705 1 10.0596C1 9.94879 1.04403 9.84248 1.12241 9.7641C1.20079 9.68572 1.3071 9.64169 1.41794 9.64169H4.76148C4.87232 9.64169 4.97863 9.68572 5.057 9.7641C5.13538 9.84248 5.17942 9.94879 5.17942 10.0596C5.17942 10.1705 5.13538 10.2768 5.057 10.3552C4.97863 10.4335 4.87232 10.4776 4.76148 10.4776ZM12.3507 2.33656L10.4717 1.13678C10.2534 0.99808 9.98909 0.951579 9.73661 1.00746C9.48413 1.06335 9.26412 1.21706 9.12479 1.43491L8.82498 1.90468C8.68612 2.12274 8.63946 2.38699 8.69525 2.63941C8.75104 2.89184 8.90473 3.11181 9.12256 3.25102L11.0027 4.45025C11.2209 4.58849 11.4848 4.6348 11.737 4.57904C11.9892 4.52328 12.209 4.37 12.3485 4.15267L12.6483 3.6829C12.7869 3.46476 12.8334 3.2006 12.7776 2.94827C12.7218 2.69593 12.5683 2.47597 12.3507 2.33656Z" fill="#828282"/>
  <path d="M9.68203 4.85342C9.60719 4.85326 9.53377 4.83302 9.46942 4.79479C9.40508 4.75657 9.35218 4.70177 9.31625 4.63612C9.28032 4.57046 9.26268 4.49637 9.26517 4.42157C9.26766 4.34677 9.29019 4.27401 9.3304 4.21089L9.92945 3.27135C9.95898 3.22507 9.99734 3.18505 10.0423 3.15359C10.0873 3.12212 10.1381 3.09983 10.1917 3.08798C10.2453 3.07613 10.3007 3.07495 10.3548 3.08452C10.4088 3.09409 10.4605 3.11421 10.5068 3.14374C10.5531 3.17327 10.5931 3.21162 10.6245 3.25662C10.656 3.30161 10.6783 3.35236 10.6901 3.40597C10.702 3.45958 10.7032 3.515 10.6936 3.56906C10.684 3.62313 10.6639 3.67478 10.6344 3.72106L10.0348 4.66005C9.99711 4.71946 9.945 4.76835 9.88331 4.80217C9.82163 4.83598 9.75238 4.85361 9.68203 4.85342ZM6.98547 4.90245C6.35174 4.90245 5.73223 5.09038 5.2053 5.44247C4.67837 5.79455 4.26768 6.29499 4.02516 6.88049C3.78264 7.46599 3.71918 8.11026 3.84282 8.73182C3.96646 9.35338 4.27163 9.92433 4.71975 10.3724C5.16786 10.8206 5.7388 11.1257 6.36036 11.2494C6.98192 11.373 7.62618 11.3096 8.21167 11.067C8.79717 10.8245 9.2976 10.4138 9.64968 9.88689C10.0018 9.35995 10.1897 8.74044 10.1897 8.1067C10.1925 7.68513 10.1115 7.2672 9.95152 6.87717C9.79149 6.48714 9.55557 6.13279 9.25747 5.83468C8.95937 5.53658 8.60502 5.30066 8.21499 5.14063C7.82497 4.9806 7.40704 4.89964 6.98547 4.90245ZM8.37415 7.45471L7.80519 7.94844C7.81567 8.00055 7.82108 8.05355 7.82135 8.1067C7.82419 8.28752 7.76923 8.46453 7.66449 8.61195C7.55974 8.75936 7.41066 8.86949 7.23898 8.9263C7.06729 8.98311 6.88195 8.98363 6.70995 8.92778C6.53794 8.87194 6.38826 8.76264 6.28269 8.61582C6.17711 8.46899 6.12116 8.29229 6.12299 8.11146C6.12481 7.93063 6.18431 7.7551 6.29282 7.61043C6.40134 7.46576 6.5532 7.35951 6.72629 7.30714C6.89939 7.25478 7.08468 7.25903 7.25518 7.31929L7.82581 6.82333C7.90954 6.75062 8.01872 6.71414 8.12934 6.72192C8.23996 6.72971 8.34295 6.78112 8.41567 6.86485C8.48838 6.94857 8.52486 7.05775 8.51707 7.16838C8.50929 7.279 8.45788 7.38199 8.37415 7.45471Z" fill="#828282"/>
</svg>