<svg xmlns="http://www.w3.org/2000/svg" width="54.1" height="59.303" viewBox="0 0 54.1 59.303">
    <defs>
        <style>
            .cls-2,.cls-3{fill:#86bcff;stroke:#2d2d2d}.cls-3{fill:#fff}
        </style>
    </defs>
    <g id="Group_107137" transform="translate(0 0.501)">
        <g id="Path_184907" fill="#ff8e93" stroke="none">
            <path d="M27.05 15.73c-7.178 0-13.92-.837-18.984-2.356C3.258 11.932.5 10.014.5 8.115c0-1.9 2.758-3.817 7.566-5.26C13.13 1.338 19.872.5 27.05.5c7.178 0 13.92.837 18.984 2.356 4.808 1.442 7.566 3.36 7.566 5.259 0 1.9-2.758 3.817-7.566 5.26-5.064 1.518-11.806 2.355-18.984 2.355z" transform="translate(0 42.572)"/>
            <path fill="#2d2d2d" d="M27.05 1c-7.13 0-13.821.83-18.84 2.335-2.346.704-4.25 1.546-5.506 2.437C1.927 6.323 1 7.178 1 8.115c0 .938.927 1.792 1.704 2.343 1.256.89 3.16 1.734 5.506 2.437 5.019 1.506 11.71 2.335 18.84 2.335 7.13 0 13.822-.829 18.84-2.335 2.346-.703 4.25-1.546 5.506-2.437.777-.551 1.704-1.405 1.704-2.343 0-.937-.927-1.792-1.704-2.343-1.256-.89-3.16-1.733-5.506-2.437C40.872 1.829 34.18 1 27.05 1m0-1C41.99 0 54.1 3.633 54.1 8.115S41.99 16.23 27.05 16.23C12.11 16.23 0 12.597 0 8.115S12.11 0 27.05 0z" transform="translate(0 42.572)"/>
        </g>
        <g id="Group_104704" transform="translate(2.637)">
            <path id="Path_179681" d="M350.057 298.294a48.806 48.806 0 0 1-3.633-5.74 34.566 34.566 0 0 1-3.634-8.8 21.185 21.185 0 0 1 .146-12.3 19.73 19.73 0 0 1 7.751-9.931 19.424 19.424 0 0 1 11.141-3.052 19.041 19.041 0 0 1 11.141 4.651 19.254 19.254 0 0 1 6.1 11.625 23.619 23.619 0 0 1-.242 8.525c-.767 3.536-2.215 6.09-4.117 9.447a52.9 52.9 0 0 1-3.778 5.862c-4.634 6.207-7.218 9.67-10.488 9.639-3.153-.037-5.564-3.334-10.387-9.926z" class="cls-2" transform="translate(-341.933 -258.451)"/>
            <path id="Path_185091" d="M13.05 0A13.05 13.05 0 1 1 0 13.05 13.05 13.05 0 0 1 13.05 0z" class="cls-3" transform="translate(5.765 5.296)"/>
            <circle id="Ellipse_13836" cx="4.548" cy="4.548" r="4.548" class="cls-2" transform="translate(14.611 13.499)"/>
        </g>
        <g id="Group_104537" transform="translate(24.958 19.398)">
            <path id="Path_179681-2" d="M346.89 282.762a29.777 29.777 0 0 1-2.217-3.5 21.094 21.094 0 0 1-2.217-5.372 12.927 12.927 0 0 1 .089-7.508 12.039 12.039 0 0 1 4.729-6.06 11.853 11.853 0 0 1 6.8-1.862 11.618 11.618 0 0 1 6.8 2.838 11.749 11.749 0 0 1 3.724 7.094 14.413 14.413 0 0 1-.148 5.2 19.529 19.529 0 0 1-2.512 5.764 32.28 32.28 0 0 1-2.306 3.577c-2.828 3.788-4.4 5.9-6.4 5.882-1.932-.015-3.399-2.03-6.342-6.053z" class="cls-2" transform="translate(-341.933 -258.451)"/>
            <path id="Path_186880" d="M7.963 0A7.963 7.963 0 1 1 0 7.963 7.963 7.963 0 0 1 7.963 0z" class="cls-3" transform="translate(3.518 3.232)"/>
            <circle id="Ellipse_13836-2" cx="2.775" cy="2.775" r="2.775" class="cls-2" transform="translate(8.916 8.237)"/>
        </g>
    </g>
</svg>
