<svg xmlns="http://www.w3.org/2000/svg" width="84.299" height="68" viewBox="0 0 84.299 68">
    <defs>
        <style>
            .cls-1,.cls-2{fill:#fff;stroke:#2d2d2d;stroke-miterlimit:10}.cls-2{fill:none}
        </style>
    </defs>
    <g id="Group_107146" transform="translate(560.174 -2458.863)">
        <path id="Path_180470" d="M-504.027 2469.21s.724 10.431.724 20.413-.724 19.515-.724 19.515a14.08 14.08 0 0 1-4.222 10.063l-29.1-32.38 30.81-25.119a11.142 11.142 0 0 1 2.512 7.508z" class="cls-1" transform="translate(26.927 3.076)"/>
        <path id="Path_180471" d="M-526.407 2487.123l-29.6 32.072a14.029 14.029 0 0 1-4.007-9.844s-.407-10.191-.407-20.173.407-19.754.407-19.754a11.3 11.3 0 0 1 2.97-7.89z" class="cls-1" transform="translate(0.749 2.863)"/>
        <path id="Path_180472" d="M-483.546 2504.558a14.132 14.132 0 0 1-9.882 3.986s-12.736.509-26.4.509-28.258-.509-28.258-.509a14.1 14.1 0 0 1-10.1-4.2l29.559-31.582 1.509 1.313a9.755 9.755 0 0 0 12.834 0l1.662-1.4z" class="cls-1" transform="translate(2.568 17.31)"/>
        <path id="Line_565" d="M1.422 1.597L0 0" class="cls-2" transform="translate(-511.842 2488.301)"/>
        <path id="Line_566" d="M1.553 0L0 1.685" class="cls-2" transform="translate(-526.435 2488.301)"/>
        <path id="Path_180473" fill="#86bcff" stroke="#2d2d2d" stroke-miterlimit="10" d="M-480.788 2463.911l-30.828 26.353-1.681 1.438a9.755 9.755 0 0 1-12.981 0l-1.526-1.35-30.784-26.84a14.2 14.2 0 0 1 11.1-5.333s14.9-.408 28.722-.408 26.564.408 26.564.408a14.214 14.214 0 0 1 11.414 5.732z" transform="translate(1.699 1.591)"/>
    </g>
</svg>
