<svg width="117" height="125" viewBox="0 0 117 125" fill="none" xmlns="http://www.w3.org/2000/svg">
<path opacity="0.05" d="M42.8124 109.258C28.7559 99.6212 16.6023 87.469 6.96384 73.4144C2.89221 69.2466 0.590419 63.6659 0.540109 57.8399C0.532816 54.9492 1.09649 52.0854 2.19884 49.413C3.30119 46.7406 4.92052 44.3121 6.96384 42.267C17.2477 28.763 29.3058 16.7073 42.8124 6.42591C46.9799 2.35409 52.5608 0.0515352 58.3874 6.95085e-05C61.2786 -0.0072059 64.1428 0.556722 66.8153 1.65947C69.4879 2.76221 71.9163 4.38204 73.961 6.42591C87.2784 16.9219 99.3111 28.9521 109.81 42.267C113.883 46.4332 116.186 52.0139 116.236 57.8399C116.243 60.7312 115.679 63.5954 114.577 66.2681C113.474 68.9408 111.854 71.3693 109.81 73.4144C99.3216 86.7395 87.2878 98.7718 73.961 109.258C71.3071 111.87 68.0516 113.788 64.4814 114.845C62.4983 115.421 60.4423 115.707 58.3772 115.696C55.7835 115.637 53.2188 115.136 50.7942 114.213C47.837 113.095 45.1259 111.413 42.8124 109.258Z" fill="url(#paint0_linear_1286_15502)"/>
<path d="M35.0762 73.1758L34.5703 100.32L39.9859 109.104L45.2588 82.3564L35.0762 73.1758Z" fill="white"/>
<path d="M41.7869 97.2111L39.6465 111.629L76.0405 113.377L70.242 96.6289L41.7869 97.2111Z" fill="white"/>
<path d="M35.5459 121.746L38.9354 99.9018L78.1836 99.4648C78.9566 106.796 79.7296 114.126 80.5025 121.456" stroke="#050A4E" stroke-width="0.861568" stroke-miterlimit="10" stroke-linecap="round"/>
<path d="M81.4823 67.2812C84.8991 71.6918 87.4014 76.7399 88.8425 82.1297C93.3842 99.6467 85.2103 119.077 79.4981 119.016C73.2444 118.948 68.6424 95.4951 66.4971 82.4276L81.4823 67.2812Z" fill="white" stroke="#050A4E" stroke-width="0.861568" stroke-miterlimit="10"/>
<path d="M35.2713 67.2812C31.4565 72.145 28.808 77.8188 27.5295 83.8664C23.874 101.862 34.8159 116.01 37.2529 119.016" fill="white"/>
<path d="M35.2713 67.2812C31.4565 72.145 28.808 77.8188 27.5295 83.8664C23.874 101.862 34.8159 116.01 37.2529 119.016" stroke="#050A4E" stroke-width="0.861568" stroke-miterlimit="10"/>
<path d="M51.5332 56.4351C51.8844 53.6929 52.2348 50.9502 52.5843 48.2072L63.1877 47.625L64.1589 56.3638C62.1911 57.3099 60.0378 57.8072 57.8543 57.8198C55.6709 57.8324 53.5118 57.3598 51.5332 56.4364V56.4351Z" fill="white" stroke="#050A4E" stroke-width="0.861568" stroke-miterlimit="10"/>
<path d="M33.499 123.182C32.6891 120.033 31.9203 116.767 31.1924 113.385C30.5869 110.55 30.0446 107.779 29.5654 105.074C37.6592 105.252 45.9959 105.298 54.5754 105.212C66.3063 105.089 77.6039 104.686 88.4363 104.082C87.7134 107.632 86.9445 111.229 86.1297 114.873C85.511 117.635 84.878 120.364 84.2306 123.059" fill="white"/>
<path d="M33.499 123.182C32.6891 120.033 31.9203 116.767 31.1924 113.385C30.5869 110.55 30.0446 107.779 29.5654 105.074C37.6592 105.252 45.9959 105.298 54.5754 105.212C66.3063 105.089 77.6039 104.686 88.4363 104.082C87.7134 107.632 86.9445 111.229 86.1297 114.873C85.511 117.635 84.878 120.364 84.2306 123.059" stroke="#050A4E" stroke-width="0.861568" stroke-miterlimit="10" stroke-linecap="round"/>
<path d="M35.3669 116.061C32.7623 113.897 30.7633 111.095 29.5648 107.928C26.8386 100.1 30.6072 91.9271 31.1918 90.5633C32.1568 88.3245 33.3421 86.4007 36.0757 80.2073C36.7761 78.6183 37.3349 77.3026 37.7029 76.425C35.3115 77.0423 32.8196 77.168 30.3783 76.7942C28.1148 76.441 25.412 76.0188 24.2747 74.3141C23.8956 73.7467 22.9282 71.8956 27.5302 64.267C31.1291 58.3013 32.9101 55.2944 36.5484 52.7983C40.7986 49.9472 45.752 48.3222 50.8651 48.1016C51.6838 49.1249 52.7222 49.9509 53.9034 50.5186C55.0846 51.0863 56.3783 51.381 57.6888 51.381C58.9993 51.381 60.293 51.0863 61.4741 50.5186C62.6553 49.9509 63.6937 49.1249 64.5124 48.1016C65.9684 48.2886 77.3461 49.8653 83.5124 56.4021C84.5045 57.4557 88.1637 63.1519 88.1637 63.1519C88.1637 63.1519 95.4599 72.5824 92.7767 76.0496C92.1035 76.9185 90.9072 77.2804 89.2493 77.7863C87.6207 78.2576 85.9191 78.4245 84.23 78.2786C82.4478 78.1347 80.7097 77.6504 79.1098 76.8521C81.2678 80.8601 83.1159 85.0275 84.6375 89.3177C87.7416 98.075 89.1705 102.421 87.6221 107.425C86.1491 111.713 83.3882 115.442 79.7166 118.101C72.3921 123.849 64.1137 123.94 59.5794 123.991C55.818 124.038 44.1266 124.167 35.3669 116.061Z" fill="white" stroke="#050A4E" stroke-width="0.861568" stroke-miterlimit="10"/>
<path d="M71.6826 79.0043C71.9669 79.0215 77.0366 79.2862 78.6982 76.4922C79.2283 75.3935 79.3719 74.1479 79.1056 72.9573C78.8574 70.8032 78.0513 68.7511 76.7671 67.0039" fill="white"/>
<path d="M71.6826 79.0043C71.9669 79.0215 77.0366 79.2862 78.6982 76.4922C79.2283 75.3935 79.3719 74.1479 79.1056 72.9573C78.8574 70.8032 78.0513 68.7511 76.7671 67.0039" stroke="#050A4E" stroke-width="0.861568" stroke-miterlimit="10" stroke-linecap="round"/>
<path d="M47.6733 78.9061C45.6166 79.4307 43.4475 79.3016 41.4675 78.5368C39.853 78.0093 38.4813 76.9201 37.6016 75.4672C36.9726 74.2364 37.081 73.0622 37.2964 70.7224C37.4079 69.5297 37.6137 68.3477 37.9118 67.1875" fill="white"/>
<path d="M47.6733 78.9061C45.6166 79.4307 43.4475 79.3016 41.4675 78.5368C39.853 78.0093 38.4813 76.9201 37.6016 75.4672C36.9726 74.2364 37.081 73.0622 37.2964 70.7224C37.4079 69.5297 37.6137 68.3477 37.9118 67.1875" stroke="#050A4E" stroke-width="0.861568" stroke-miterlimit="10" stroke-linecap="round"/>
<path d="M30.6494 110.473C48.7333 116.796 68.4416 116.709 86.4691 110.227L30.6494 110.473Z" fill="white"/>
<path d="M30.6494 110.473C48.7333 116.796 68.4416 116.709 86.4691 110.227" stroke="#050A4E" stroke-width="0.861568" stroke-miterlimit="10" stroke-linecap="round"/>
<path d="M59.7142 118.935C60.2763 118.935 60.7321 118.519 60.7321 118.005C60.7321 117.491 60.2763 117.074 59.7142 117.074C59.152 117.074 58.6963 117.491 58.6963 118.005C58.6963 118.519 59.152 118.935 59.7142 118.935Z" fill="#050A4E" stroke="#050A4E" stroke-width="0.861568" stroke-miterlimit="10"/>
<path d="M45.968 33.2578C45.7219 33.2701 43.2148 33.4301 42.5219 34.9305C41.7834 36.5072 43.1139 39.4463 46.522 40.8544C45.8108 38.3883 45.6234 35.8007 45.9718 33.2578H45.968Z" fill="white" stroke="#050A4E" stroke-width="0.861568" stroke-miterlimit="10"/>
<path d="M69.1339 33.1133C69.38 33.1256 71.8873 33.2868 72.5802 34.786C73.3187 36.3639 71.9882 39.3018 68.5801 40.7098C69.2914 38.2438 69.4787 35.6561 69.1301 33.1133H69.1339Z" fill="white" stroke="#050A4E" stroke-width="0.861568" stroke-miterlimit="10"/>
<path d="M57.5959 51.8751C64.278 51.8751 69.6948 44.431 69.6948 35.2481C69.6948 26.0653 64.278 18.6211 57.5959 18.6211C50.9139 18.6211 45.4971 26.0653 45.4971 35.2481C45.4971 44.431 50.9139 51.8751 57.5959 51.8751Z" fill="white" stroke="#050A4E" stroke-width="0.861568" stroke-miterlimit="10"/>
<path d="M62.3584 11.763C58.8633 10.7013 55.1089 10.8783 51.7291 12.2639C50.598 12.7427 45.4938 14.8892 43.5712 20.2851C41.4653 26.2016 44.2174 32.832 45.6735 32.8172C46.972 32.8062 46.412 27.5014 49.9715 25.4398C52.3852 24.044 53.6935 25.8558 58.0321 24.5856C61.3897 23.6009 62.2635 22.0341 64.2082 22.567C66.015 23.0594 67.0268 24.9056 67.7961 26.3013C69.7838 29.915 69.15 32.7803 69.8061 32.8886C70.8338 33.0572 74.8104 26.4724 72.7402 20.2851C70.6786 14.1274 63.9141 12.2048 62.3584 11.763Z" fill="#050A4E" stroke="#050A4E" stroke-width="0.861568" stroke-miterlimit="10"/>
<path d="M48.4873 48.3086C48.8851 50.4105 49.9898 52.3132 51.618 53.7007C53.2461 55.0883 55.2998 55.8774 57.4382 55.9369C59.5766 55.9964 61.671 55.3228 63.3738 54.0279C65.0766 52.733 66.2853 50.8947 66.7994 48.8181" stroke="#050A4E" stroke-width="0.861568" stroke-miterlimit="10"/>
<defs>
<linearGradient id="paint0_linear_1286_15502" x1="58.3882" y1="0" x2="58.3882" y2="115.696" gradientUnits="userSpaceOnUse">
<stop stop-color="#1778F2"/>
<stop offset="1" stop-color="#F40009"/>
</linearGradient>
</defs>
</svg>
