<svg xmlns="http://www.w3.org/2000/svg" width="46.4" height="46.4" viewBox="0 0 46.4 46.4"> <defs> <linearGradient id="uxq42a95bb" x1=".5" x2=".5" y2="1" gradientUnits="objectBoundingBox"> <stop offset="0" stop-color="#c7dcff"/> <stop offset=".088" stop-color="#ccd8f8"/> <stop offset="1" stop-color="#ffabaf"/> </linearGradient> <clipPath id="8ebqd2ucra"> <path stroke="#707070" stroke-width="0.4px" d="M850.249 141.214a49.124 49.124 0 0 1-12.76-12.76 8.021 8.021 0 0 1-2.289-5.543 7.82 7.82 0 0 1 2.289-5.545 67.025 67.025 0 0 1 12.76-12.76 8.023 8.023 0 0 1 5.544-2.287 7.819 7.819 0 0 1 5.545 2.287 76.634 76.634 0 0 1 12.76 12.76 8.023 8.023 0 0 1 2.288 5.545 7.815 7.815 0 0 1-2.288 5.543 76.078 76.078 0 0 1-12.76 12.76 8.093 8.093 0 0 1-3.372 1.986 7.8 7.8 0 0 1-2.173.3 8.164 8.164 0 0 1-2.7-.53 8.6 8.6 0 0 1-2.844-1.756z" transform="translate(826.779 -70.295)"/> </clipPath> </defs> <g> <g> <g> <path fill="#fff" stroke="#2d2d2d" stroke-width="0.4px" d="M852.009 145.762a54.865 54.865 0 0 1-14.252-14.252 8.959 8.959 0 0 1-2.556-6.191 8.734 8.734 0 0 1 2.556-6.194 74.858 74.858 0 0 1 14.252-14.252 8.961 8.961 0 0 1 6.192-2.555 8.733 8.733 0 0 1 6.193 2.555 85.587 85.587 0 0 1 14.252 14.252 8.961 8.961 0 0 1 2.555 6.194 8.729 8.729 0 0 1-2.555 6.191 84.972 84.972 0 0 1-14.252 14.252 9.039 9.039 0 0 1-3.767 2.219 8.714 8.714 0 0 1-2.427.338 9.118 9.118 0 0 1-3.014-.592 9.607 9.607 0 0 1-3.177-1.965z" transform="translate(-1661.78 -31.824) translate(826.779 -70.295)"/> <g clip-path="url(#8ebqd2ucra)" transform="translate(-1661.78 -31.824) translate(2.407 2.407)"> <path fill="url(#uxq42a95bb)" stroke="#2d2d2d" stroke-miterlimit="10" stroke-width="0.5px" d="M1810.206 126.237q-.517-.532-1.074-1.018a16.655 16.655 0 0 0-7.049-3.625 1.128 1.128 0 0 1-.885-1.09v-.231a1.151 1.151 0 0 1 .559-.966 11.121 11.121 0 0 0 4.494-9.441c0-5.79-3.546-10.483-7.922-10.483-3.669 0-6.757 3.3-7.714 8.095l-.185 1.588-.022.8a11.37 11.37 0 0 0 4.045 9.13 1.151 1.151 0 0 1 .483.916v.62a1.127 1.127 0 0 1-.874 1.088 16.678 16.678 0 0 0-8.61 5.268c-2.205 2.22-4.573 4.61-4.18 7.2.714 4.785 10.366 7.45 17.555 7.261 5.994-.157 15.248-2.428 16.032-7.261.497-3.058-2.605-5.947-4.653-7.851z" transform="translate(-115.416 -63.7)"/> </g> </g> </g> </g></svg>