<svg width="118" height="125" viewBox="0 0 118 125" fill="none" xmlns="http://www.w3.org/2000/svg">
<path opacity="0.05" d="M43.1793 111.185C28.875 101.378 16.5071 89.0112 6.69868 74.7087C2.55527 70.4675 0.212889 64.7884 0.161692 58.8597C0.154271 55.918 0.727882 53.0037 1.84967 50.2842C2.97146 47.5647 4.61933 45.0934 6.69868 43.0122C17.1639 29.2701 29.4346 17.0019 43.1793 6.53921C47.4203 2.39559 53.0996 0.0524439 59.0289 7.0734e-05C61.9711 -0.00733295 64.8857 0.566537 67.6054 1.68872C70.3251 2.81091 72.7963 4.4593 74.877 6.53921C88.4293 17.2203 100.674 29.4626 111.358 43.0122C115.503 47.2519 117.847 52.9309 117.898 58.8597C117.905 61.8019 117.331 64.7166 116.209 67.4364C115.086 70.1563 113.438 72.6277 111.358 74.7087C100.685 88.2688 88.4388 100.513 74.877 111.185C72.1764 113.842 68.8635 115.794 65.2304 116.869C63.2122 117.456 61.1201 117.747 59.0185 117.736C56.3791 117.676 53.7692 117.166 51.3018 116.227C48.2925 115.089 45.5336 113.377 43.1793 111.185Z" fill="url(#paint0_linear_1214_13428)"/>
<path d="M17.9453 50.3775C17.5018 50.258 18.4151 47.884 17.7995 43.8915C17.6393 42.8528 17.4887 42.4368 17.2293 41.3455C16.8528 39.764 16.8324 39.5524 16.7822 39.2381C16.487 37.4331 16.2861 36.1995 16.885 35.8122C17.4839 35.4249 18.5489 36.0883 18.6278 36.1385C19.3127 36.6624 19.7913 37.4105 19.9798 38.2519C20.4312 39.5446 20.652 40.9064 20.6324 42.2754C20.6446 42.8151 20.6207 43.355 20.5607 43.8915C20.1866 47.3831 18.4677 50.5102 17.9453 50.3775Z" fill="white" stroke="#050A4E" stroke-width="0.484211" stroke-miterlimit="10" stroke-linecap="round"/>
<path d="M29.1808 41.9891C29.5735 42.58 29.7211 43.3005 29.5924 43.9982C29.4637 44.6959 29.0688 45.3163 28.4911 45.7282C27.9508 45.9971 27.5049 45.7688 25.6079 45.3026C24.5584 45.0456 23.4862 44.8855 22.4355 44.6332C21.3848 44.381 19.3598 43.971 15.3303 43.1522C11.1645 42.3059 9.08222 41.884 8.51682 41.8134C7.25693 41.6568 6.02335 41.3437 4.77422 41.1201C3.16767 40.8332 2.73493 40.7687 2.40024 40.3683C2.01717 39.6776 1.92034 38.8643 2.13044 38.1031C2.34054 37.3418 2.8408 36.6933 3.52386 36.2969C4.16156 36.1348 4.83606 36.2034 5.42807 36.4906C7.21033 37.0237 9.06071 37.3273 10.8418 37.8652C10.9924 37.9106 12.6934 38.3027 16.0894 39.0856C23.3367 40.7591 23.8029 40.8536 24.5405 40.9671C25.4668 41.1106 26.3765 41.3449 27.3017 41.4967C28.5891 41.7082 28.8879 41.707 29.1808 41.9891Z" fill="white" stroke="#050A4E" stroke-width="0.484211" stroke-miterlimit="10" stroke-linecap="round"/>
<path d="M20.682 40.1953C20.9513 40.8862 21.0017 41.6431 20.8266 42.3637C20.6711 42.9795 20.3581 43.5443 19.9182 44.0025L28.166 45.7776C28.6325 45.5536 29.0207 45.1944 29.28 44.7466C29.5393 44.2989 29.6576 43.7834 29.6196 43.2673C29.5284 42.7173 29.245 42.2175 28.8199 41.8568L20.682 40.1953Z" fill="#F40009" stroke="#050A4E" stroke-width="0.484211" stroke-miterlimit="10" stroke-linecap="round"/>
<path d="M51.762 49.4782C52.4323 50.7787 52.7719 52.2245 52.7505 53.6875C52.7292 55.1505 52.3476 56.5857 51.6396 57.8661C50.9316 59.1466 49.9189 60.2328 48.6912 61.0288C47.4635 61.8248 46.0586 62.3059 44.6007 62.4297C40.2509 81.2906 38.0288 100.58 37.9761 119.935L72.6901 119.273C71.536 116.604 70.8416 113.76 70.6365 110.859C70.5757 109.468 70.5981 108.074 70.7035 106.685C70.7465 105.23 70.7728 101.843 68.8483 91.1825C67.6529 84.5484 67.6529 85.9458 67.3912 83.6973C66.4349 75.5451 68.4669 71.7367 66.3309 64.683C65.4762 61.8584 64.8725 60.1777 64.8725 60.1777C64.0152 58.1281 63.6325 55.9112 63.753 53.6928C63.8734 51.4744 64.494 49.3119 65.5682 47.3672L51.762 49.4782Z" fill="white"/>
<path d="M39.2624 80.6492C35.6668 87.3527 30.8412 91.1682 27.0639 90.3853C24.5597 89.8641 23.1408 87.4519 22.2658 85.9625C17.9805 78.6793 21.4542 70.5426 19.7389 61.9887C19.5414 60.8137 19.2716 59.652 18.9309 58.5102C18.0033 55.8099 16.8247 54.7592 16.7362 51.7888C16.6944 50.3998 16.9382 50.1679 17.6925 48.0007C17.812 47.6577 18.3104 46.1348 19.2033 43.0472C20.6509 38.0495 20.8589 36.6163 21.6633 36.5207C22.3519 36.4382 22.9783 37.3933 23.1253 37.6072C24.1748 39.1934 23.5771 41.32 22.983 43.3293C22.4917 44.9897 21.5176 47.4294 22.1654 48.8459C22.1912 48.9051 22.2216 48.9623 22.2563 49.0168C22.848 49.9181 24.3744 49.2977 25.9367 49.9456C26.5465 50.1639 27.0758 50.5619 27.4548 51.0871C27.7561 51.5509 28.0633 52.3924 27.1739 55.4346C26.899 56.3718 26.7257 56.9682 26.4782 57.5862C26.3204 57.9855 26.1818 58.27 26.1614 58.3142C24.1784 62.5744 25.8698 71.3434 25.8698 71.3434C26.3991 74.0804 27.1678 76.7655 28.1673 79.3678" fill="white"/>
<path d="M39.2624 80.6492C35.6668 87.3527 30.8412 91.1682 27.0639 90.3853C24.5597 89.8641 23.1408 87.4519 22.2658 85.9625C17.9805 78.6793 21.4542 70.5426 19.7389 61.9887C19.5414 60.8137 19.2716 59.652 18.9309 58.5102C18.0033 55.8099 16.8247 54.7592 16.7362 51.7888C16.6944 50.3998 16.9382 50.1679 17.6925 48.0007C17.812 47.6577 18.3104 46.1348 19.2033 43.0472C20.6509 38.0495 20.8589 36.6163 21.6633 36.5207C22.3519 36.4382 22.9783 37.3933 23.1253 37.6072C24.1748 39.1934 23.5771 41.32 22.983 43.3293C22.4917 44.9897 21.5176 47.4294 22.1654 48.8459C22.1912 48.9051 22.2216 48.9623 22.2563 49.0168C22.848 49.9181 24.3744 49.2977 25.9367 49.9456C26.5465 50.1639 27.0758 50.5619 27.4548 51.0871C27.7561 51.5509 28.0633 52.3924 27.1739 55.4346C26.899 56.3718 26.7257 56.9682 26.4782 57.5862C26.3204 57.9855 26.1818 58.27 26.1614 58.3142C24.1784 62.5744 25.8698 71.3434 25.8698 71.3434C26.3991 74.0804 27.1678 76.7655 28.1673 79.3678" stroke="#050A4E" stroke-width="0.484211" stroke-miterlimit="10" stroke-linecap="round"/>
<path d="M77.7331 80.2507C79.2015 82.3304 80.9904 84.1641 83.0332 85.6835C84.5202 86.7773 86.3802 87.8627 86.2128 89.0628C86.1507 89.4907 85.8542 89.7465 85.2852 90.2581C81.5522 93.5907 83.7241 92.0093 81.9729 93.3062C77.7151 96.4584 75.5682 98.0338 74.6813 98.0099C73.2373 97.9717 73.0078 97.2389 69.9776 96.6855C68.9713 96.5014 67.953 96.3904 66.9307 96.3532C68.4089 100.35 69.8884 104.348 71.369 108.345C72.4554 106.436 73.8682 104.732 75.5431 103.31C79.8536 99.681 83.0571 100.493 89.0577 97.2138C92.3736 95.4029 97.1717 92.7827 97.3391 89.1309C97.4263 87.2411 96.2393 85.7839 91.2428 80.9822C87.5683 77.4476 84.1544 74.3313 81.1063 71.6406L77.7331 80.2507Z" fill="white"/>
<path d="M52.5561 52.457C52.974 54.4028 52.6173 56.4348 51.5616 58.1218C49.8188 60.6212 44.4074 63.9969 44.007 64.3639C43.9018 64.4607 43.8014 64.5599 43.8002 64.5599C43.6041 64.7571 43.4738 64.9328 41.9079 66.5382C38.8921 69.6282 38.659 69.6999 36.8098 71.6112C34.3845 74.1215 33.5943 75.2212 32.35 76.3723C31.7906 76.8899 31.3004 77.2676 31.0004 77.4995C30.109 78.1903 29.1695 78.8166 28.189 79.3738" stroke="#050A4E" stroke-width="0.484211" stroke-miterlimit="10" stroke-linecap="round"/>
<path d="M86.4509 88.918C80.6605 83.6836 74.2113 79.228 67.2668 75.6641" stroke="#050A4E" stroke-width="0.484211" stroke-miterlimit="10" stroke-linecap="round"/>
<path d="M3.07166 33.8204C3.39554 33.1308 3.57146 32.381 3.58813 31.6193C3.60481 30.8576 3.46186 30.1008 3.16848 29.3976C2.7011 28.4892 2.11654 28.2728 1.7161 27.4241C1.30132 26.5455 1.11844 25.0693 2.4907 22.5352" stroke="#050A4E" stroke-width="0.484211" stroke-miterlimit="10" stroke-linecap="round"/>
<path d="M4.72557 22.5587C5.04944 21.8691 5.22536 21.1193 5.24204 20.3575C5.25871 19.5958 5.11577 18.8391 4.82238 18.1359C4.35381 17.2275 3.77047 17.0111 3.36884 16.1624C2.95525 15.2838 2.77115 13.8076 4.1446 11.2734" stroke="#050A4E" stroke-width="0.484211" stroke-miterlimit="10" stroke-linecap="round"/>
<path d="M7.32029 30.103C6.25524 26.8385 6.69274 24.8949 7.32029 23.7115C7.85331 22.9396 8.24698 22.0803 8.48339 21.1726C8.6927 20.0004 8.55815 18.7927 8.09606 17.6953" stroke="#050A4E" stroke-width="0.484211" stroke-miterlimit="10" stroke-linecap="round"/>
<path d="M68.3593 37.2572C67.3014 46.1027 58.9627 54.8025 51.5647 53.2557C44.8206 51.8464 41.1592 42.3996 41.8262 35.1366C42.5852 26.8708 49.3114 17.5209 56.8242 18.2381C64.1708 18.9361 69.3466 28.9842 68.3593 37.2572Z" fill="white" stroke="#050A4E" stroke-width="0.484211" stroke-miterlimit="10"/>
<path d="M44.355 19.4766C42.0838 26.9343 55.7263 38.1909 62.2158 35.9305C63.7052 35.4129 65.2161 33.3868 66.5704 33.9725C66.9322 34.1909 67.2336 34.4964 67.447 34.8612C67.6604 35.226 67.779 35.6384 67.7921 36.0608C67.8746 37.0972 67.3247 37.8717 66.4676 39.042C63.7566 42.7476 63.5558 42.9866 63.4877 43.1062V43.1169C62.2469 45.4048 62.9773 49.0936 64.3519 49.8419C66.6816 51.1114 73.7461 45.51 76.8074 38.1825C78.7489 34.0385 79.125 29.3319 77.8664 24.9321C75.3359 16.9066 67.7539 13.8095 65.7684 13.0982C60.7432 11.3987 55.2635 11.6443 50.4106 13.7867C45.7977 15.9324 44.6957 18.3553 44.355 19.4766Z" fill="#050A4E" stroke="#050A4E" stroke-width="0.484211" stroke-miterlimit="10"/>
<path d="M73.4266 122.126C72.9485 120.488 72.4847 118.799 72.0352 117.058C71.3475 114.379 70.7498 111.784 70.2422 109.273" fill="white"/>
<path d="M73.4266 122.126C72.9485 120.488 72.4847 118.799 72.0352 117.058C71.3475 114.379 70.7498 111.784 70.2422 109.273" stroke="#050A4E" stroke-width="0.484211" stroke-miterlimit="10" stroke-linecap="round"/>
<path d="M39.975 84.0106C39.9719 84.0106 39.9688 84.0118 39.9666 84.0141C39.9643 84.0163 39.9631 84.0194 39.9631 84.0225L39.9511 84.0345C39.2428 85.1045 38.4026 86.0812 37.4504 86.9416C36.3543 87.9325 35.8068 88.4274 35.1649 88.4322C34.4812 88.4322 33.6576 87.954 31.1904 83.2647C28.4877 78.1247 28.6144 77.0596 29.0041 76.4082C29.3938 75.7567 29.805 75.8715 31.2896 74.8184C32.4284 73.9849 33.4627 73.0173 34.37 71.9364C37.4779 68.4854 37.7864 65.4708 40.0348 63.2905C41.4501 61.9182 44.0272 60.4945 49.1194 60.7492C49.5378 61.3707 52.0241 65.0177 55.9089 65.16C57.5934 65.1277 59.2392 64.6493 60.6784 63.7734C62.5044 62.84 64.129 61.5565 65.4597 59.9961C66.2833 60.4671 67.5038 61.1807 68.9525 62.0975C73.7973 65.1648 73.5594 65.6668 76.3063 67.1658C79.9366 69.1465 81.8288 69.0783 82.8998 71.1487C83.3217 72.0011 83.5153 72.9484 83.4616 73.898C83.4616 73.898 83.4617 74.1585 83.4497 74.4239C83.3433 76.2444 80.6048 84.7756 77.1347 84.5568C76.7343 84.5317 76.6506 84.411 74.5504 82.967C70.4719 80.1616 70.0774 80.1281 69.781 80.25C68.6561 80.7126 68.7123 83.493 68.7864 87.1412C68.7972 87.6193 68.8258 88.5971 68.986 90.4535C69.2072 93.0247 69.494 95.1153 69.714 96.5497" fill="white"/>
<path d="M39.975 84.0106C39.9719 84.0106 39.9688 84.0118 39.9666 84.0141C39.9643 84.0163 39.9631 84.0194 39.9631 84.0225L39.9511 84.0345C39.2428 85.1045 38.4026 86.0812 37.4504 86.9416C36.3543 87.9325 35.8068 88.4274 35.1649 88.4322C34.4812 88.4322 33.6576 87.954 31.1904 83.2647C28.4877 78.1247 28.6144 77.0596 29.0041 76.4082C29.3938 75.7567 29.805 75.8715 31.2896 74.8184C32.4284 73.9849 33.4627 73.0173 34.37 71.9364C37.4779 68.4854 37.7864 65.4708 40.0348 63.2905C41.4501 61.9182 44.0272 60.4945 49.1194 60.7492C49.5378 61.3707 52.0241 65.0177 55.9089 65.16C57.5934 65.1277 59.2392 64.6493 60.6784 63.7734C62.5044 62.84 64.129 61.5565 65.4597 59.9961C66.2833 60.4671 67.5038 61.1807 68.9525 62.0975C73.7973 65.1648 73.5594 65.6668 76.3063 67.1658C79.9366 69.1465 81.8288 69.0783 82.8998 71.1487C83.3217 72.0011 83.5153 72.9484 83.4616 73.898C83.4616 73.898 83.4617 74.1585 83.4497 74.4239C83.3433 76.2444 80.6048 84.7756 77.1347 84.5568C76.7343 84.5317 76.6506 84.411 74.5504 82.967C70.4719 80.1616 70.0774 80.1281 69.781 80.25C68.6561 80.7126 68.7123 83.493 68.7864 87.1412C68.7972 87.6193 68.8258 88.5971 68.986 90.4535C69.2072 93.0247 69.494 95.1153 69.714 96.5497" stroke="#050A4E" stroke-width="0.484211" stroke-miterlimit="10" stroke-linecap="round"/>
<path d="M73.1612 101.902C72.6947 101.117 72.1106 100.407 71.4291 99.7985C70.2569 98.8991 69.2502 97.8025 68.4539 96.5579C67.6036 95.1983 66.9444 93.7282 66.4948 92.1889C66.239 91.1346 66.2389 90.5406 65.7178 90.213C65.2082 89.9818 64.6307 89.9485 64.0979 90.1198C63.5652 90.291 63.1152 90.6545 62.8358 91.1394C62.6195 91.7168 63.0032 92.1662 63.608 93.4883C64.5359 94.8258 65.1522 96.3542 65.4118 97.9613C65.5934 99.4917 65.5015 101.042 65.1404 102.541C64.8285 104.6 65.2229 105.822 67.316 112.389C67.7487 113.754 68.1264 114.947 68.4599 115.986" fill="white"/>
<path d="M73.1612 101.902C72.6947 101.117 72.1106 100.407 71.4291 99.7985C70.2569 98.8991 69.2502 97.8025 68.4539 96.5579C67.6036 95.1983 66.9444 93.7282 66.4948 92.1889C66.239 91.1346 66.2389 90.5406 65.7178 90.213C65.2082 89.9818 64.6307 89.9485 64.0979 90.1198C63.5652 90.291 63.1152 90.6545 62.8358 91.1394C62.6195 91.7168 63.0032 92.1662 63.608 93.4883C64.5359 94.8258 65.1522 96.3542 65.4118 97.9613C65.5934 99.4917 65.5015 101.042 65.1404 102.541C64.8285 104.6 65.2229 105.822 67.316 112.389C67.7487 113.754 68.1264 114.947 68.4599 115.986" stroke="#050A4E" stroke-width="0.484211" stroke-miterlimit="10" stroke-linecap="round"/>
<path d="M68.4602 116.032C70.7421 122.248 70.8378 122.94 71.7403 123.436C74.5804 125.002 79.412 123.109 80.7053 120.19C81.1153 119.262 81.0496 118.516 76.7858 109.073C75.7383 106.623 74.5274 104.245 73.1615 101.957" fill="white"/>
<path d="M68.4602 116.032C70.7421 122.248 70.8378 122.94 71.7403 123.436C74.5804 125.002 79.412 123.109 80.7053 120.19C81.1153 119.262 81.0496 118.516 76.7858 109.073C75.7383 106.623 74.5274 104.245 73.1615 101.957" stroke="#050A4E" stroke-width="0.484211" stroke-miterlimit="10" stroke-linecap="round"/>
<path d="M67.7903 113.867C68.9582 114.689 70.3358 115.162 71.7624 115.231C73.9021 115.231 78.9345 114.674 79.9649 116.379L80.7203 118.546C80.7203 118.546 81.4878 119.778 79.8334 121.501C79.0458 122.298 78.1025 122.924 77.0624 123.341C76.0222 123.758 74.9074 123.956 73.7873 123.924C73.7873 123.924 71.3368 123.924 70.6675 122.29L67.7903 113.867Z" fill="#F40009" stroke="#050A4E" stroke-width="0.484211" stroke-miterlimit="10" stroke-linecap="round"/>
<path d="M83.465 73.8984C85.772 75.9664 87.6248 77.5681 88.844 78.6081C92.3583 81.6084 96.9963 85.4455 97.2354 89.0674C97.2602 89.2858 97.2602 89.5064 97.2354 89.7248C96.9963 91.8406 95.2033 93.1435 92.7289 94.9485C86.5609 99.4549 78.3011 100.65 74.727 103.878L74.6075 103.983C74.0933 104.454 73.6504 104.998 73.2926 105.597C72.4153 107.058 70.0245 110.074 66.16 107.868C61.1814 105.023 61.5639 97.5878 65.175 97.1443C65.7781 96.9628 66.3938 96.8261 67.0171 96.7355C68.4529 96.4801 69.9322 96.6625 71.263 97.2591C72.2931 97.7509 73.429 97.9801 74.5693 97.9261C77.2468 97.7826 79.2192 95.9298 83.0084 92.4872C84.5145 91.1126 85.6621 89.8694 86.439 89.0088" fill="white"/>
<path d="M83.465 73.8984C85.772 75.9664 87.6248 77.5681 88.844 78.6081C92.3583 81.6084 96.9963 85.4455 97.2354 89.0674C97.2602 89.2858 97.2602 89.5064 97.2354 89.7248C96.9963 91.8406 95.2033 93.1435 92.7289 94.9485C86.5609 99.4549 78.3011 100.65 74.727 103.878L74.6075 103.983C74.0933 104.454 73.6504 104.998 73.2926 105.597C72.4153 107.058 70.0245 110.074 66.16 107.868C61.1814 105.023 61.5639 97.5878 65.175 97.1443C65.7781 96.9628 66.3938 96.8261 67.0171 96.7355C68.4529 96.4801 69.9322 96.6625 71.263 97.2591C72.2931 97.7509 73.429 97.9801 74.5693 97.9261C77.2468 97.7826 79.2192 95.9298 83.0084 92.4872C84.5145 91.1126 85.6621 89.8694 86.439 89.0088" stroke="#050A4E" stroke-width="0.484211" stroke-miterlimit="10" stroke-linecap="round"/>
<path d="M64.05 49.5156C63.5095 51.8823 63.5205 54.3415 64.0822 56.7032C64.3486 57.7976 64.7342 58.8594 65.2321 59.8697" stroke="#050A4E" stroke-width="0.484211" stroke-miterlimit="10" stroke-linecap="round"/>
<path d="M40.8681 77.3203C39.9202 84.4924 39.1396 92.1533 38.6197 100.257C38.1224 108.001 37.9132 115.371 37.9155 122.319" fill="white"/>
<path d="M40.8681 77.3203C39.9202 84.4924 39.1396 92.1533 38.6197 100.257C38.1224 108.001 37.9132 115.371 37.9155 122.319" stroke="#050A4E" stroke-width="0.484211" stroke-miterlimit="10" stroke-linecap="round"/>
<defs>
<linearGradient id="paint0_linear_1214_13428" x1="59.0297" y1="0" x2="59.0297" y2="117.736" gradientUnits="userSpaceOnUse">
<stop stop-color="#1778F2"/>
<stop offset="1" stop-color="#F40009"/>
</linearGradient>
</defs>
</svg>
