<svg xmlns="http://www.w3.org/2000/svg" width="50.014" height="59.845" viewBox="0 0 50.014 59.845">
    <defs>
        <style>
            .cls-1{fill:#86bcff;stroke:#2d2d2d;stroke-miterlimit:10}
        </style>
    </defs>
    <g id="Group_107138" transform="translate(0.547 0.538)">
        <g id="Group_104702" transform="translate(0 0)">
            <path id="Path_145945" d="M757.308 123.522a13.148 13.148 0 0 1 5.747 7.3 10.614 10.614 0 0 1-.21 7.5c-2.125 4.766-7.363 5.747-7.784 5.818a11.263 11.263 0 0 1-9.114-2.733h-8.2a17.167 17.167 0 0 0 6.873 7.145 16.957 16.957 0 0 0 7.5 2.1 18.537 18.537 0 0 0 12.477-4.346 16.468 16.468 0 0 0 5.607-9.254 16.816 16.816 0 0 0-1.331-9.955 20.9 20.9 0 0 0-6.871-8.763z" class="cls-1" transform="translate(-730.468 -99.036)"/>
            <path id="Path_145946" d="M761.469 104.223c-1.05.46-1.144 1.49-2.187 3.411-1.592 2.932-3.275 4.027-5.233 6.037-6.1 6.266-3.768 10.048-10.014 16.357-2.373 2.4-4.056 3.21-4 5.01.085 2.754 4.171 5.686 6.8 4.881 1.559-.478 2.025-2.1 3.148-4.346 3.544-7.1 6.284-5.793 10.739-13.488 2.6-4.483 2.172-5.8 4.931-8.916 1.675-1.9 2.877-2.593 2.876-4.037-.009-2.845-4.667-5.96-7.06-4.909z" class="cls-1" transform="translate(-729.674 -104.014)"/>
            <path id="Path_145947" d="M757.288 107.132c.693-.092 1.151.155 5.272 3.031 2.676 1.868 2.959 2.094 3.145 2.6.585 1.594-.818 3.075-3.515 6.839-5.365 7.493-8.049 11.242-8.677 12.371-.675 1.21-1.466 2.76-3 3.112-1.252.287-2.362-.371-4.42-1.636-2.479-1.523-4.177-2.564-4.4-4.219-.147-1.092.426-1.862 1.905-3.92 3.068-4.264 5.339-7.524 5.764-8.145.929-1.341 1.671-2.5 4.037-5.92 2.183-3.145 2.801-3.973 3.889-4.113z" class="cls-1" transform="translate(-729.103 -102.936)"/>
            <circle id="Ellipse_13093" cx="6.401" cy="6.401" r="6.401" fill="#fff" stroke="#000" stroke-linecap="round" stroke-miterlimit="10" transform="translate(20.791 14.23)"/>
            <path id="Path_145948" d="M733.773 134.73a1.217 1.217 0 0 0 .021 2.07l.066.046c1.268.892 3.666.4 10.165.407 6.207 0 8.563.451 9.743-.407a1.193 1.193 0 0 0 .028-2.028l-.044-.032c-1.241-.889-3.714-.373-10.044-.389-6.28-.016-8.732-.534-9.935.333z" class="cls-1" transform="translate(-732.046 -93.512)"/>
            <path id="Path_145949" d="M732.756 145.492a1.667 1.667 0 0 0-.172 1.953c1.542 2.444 9.619.721 24.568.9 10.5.123 17.376 1.1 18.741-1.016a1.535 1.535 0 0 0-.1-1.783c-1.787-2.314-9.554-.051-21.521-.078-12.01-.037-19.572-2.356-21.516.024z" class="cls-1" transform="translate(-732.346 -89.97)"/>
            <path id="Path_145950" fill="#fff" stroke="#000" stroke-miterlimit="10" d="M741.312 150.874a20.565 20.565 0 0 1 3.444-7.451c1.823-2.458 4.334-6.024 7.6-5.866 2.779.137 4.7 2.884 6.572 5.549a22.593 22.593 0 0 1 3.472 7.794z" transform="translate(-729.229 -92.356)"/>
            <g id="Group_104556" transform="translate(33.545 41.164)">
                <path id="Path_77484" fill="#ff8e93" stroke="#000" stroke-miterlimit="10" d="M757.358 138.114a1 1 0 0 1 .968-.911 9.358 9.358 0 0 0 3.187-.582 8.318 8.318 0 0 0 1.733-1.058l.993-.765a1.094 1.094 0 0 1 1.4.03 10.775 10.775 0 0 0 2.554 1.693 1.666 1.666 0 0 0 .177.07 9.322 9.322 0 0 0 3.112.5 1 1 0 0 1 .982.888c.22 1.808.5 5.857-.881 8.732a12.723 12.723 0 0 1-6.184 5.407.975.975 0 0 1-.784.007 12.615 12.615 0 0 1-6.191-5.295c-1.424-2.856-1.243-6.901-1.066-8.716z" transform="translate(-757.238 -134.56)"/>
            </g>
            <path id="Path_184926" fill="#fff" d="M762.752 144.844a.8.8 0 0 1-.528-.2 14.029 14.029 0 0 1-1.136-1.128 13.857 13.857 0 0 1-.978-1.233.8.8 0 0 1 1.3-.918 11.887 11.887 0 0 0 .862 1.087q.257.287.536.561c.751-.559 1.486-1.151 2.194-1.763.86-.744 1.7-1.532 2.485-2.345a.8.8 0 0 1 1.144 1.11c-.821.845-1.691 1.667-2.586 2.441s-1.861 1.538-2.833 2.237a.8.8 0 0 1-.46.151z" transform="translate(-722.746 -91.97)"/>
        </g>
    </g>
</svg>
