<svg xmlns="http://www.w3.org/2000/svg" width="101.354" height="111.589" viewBox="0 0 101.354 111.589">
  <defs>
    <style>
      .cls-1 {
        fill: #ff8e93;
      }

      .cls-1, .cls-2, .cls-3, .cls-4 {
        stroke: #2d2d2d;
      }

      .cls-2 {
        fill: #86bcff;
      }

      .cls-3 {
        fill: #fff;
        stroke-miterlimit: 10;
      }

      .cls-4 {
        fill: none;
        stroke-linecap: round;
      }
    </style>
  </defs>
  <g id="Group_105498" data-name="Group 105498" transform="translate(0.51 0.698)">
    <path id="Path_167082" data-name="Path 167082" class="cls-1" d="M761.683,1311.556a88.586,88.586,0,0,1,.538,14.053c-.183,4.51-.613,6.733.772,7.886.849.706,3.737,2.141,14.208-4.177" transform="translate(-703.968 -1263.462)"/>
    <path id="Path_167083" data-name="Path 167083" class="cls-1" d="M736.271,1303.372c-1.474-.2-2.7-.31-3.6-.382-.732-1.328-4.586-8.687-1.68-17.1a20.452,20.452,0,0,1,6.111-8.852c1.67.083,3.3.154,4.885.206C738.126,1281.977,732.541,1291.418,736.271,1303.372Z" transform="translate(-704.939 -1264.517)"/>
    <path id="Path_167084" data-name="Path 167084" class="cls-2" d="M803.921,1300.417c.382,6.039-7.183,11.13-11.213,13.459a36.657,36.657,0,0,0-18.715-38.1c5.616-.7,10.656-1.206,15.046,1.855,2.8,1.938,2.535,3.38,10.11,14.459C802.921,1297.6,803.807,1298.449,803.921,1300.417Z" transform="translate(-703.591 -1264.572)"/>
    <path id="Path_167085" data-name="Path 167085" class="cls-3" d="M801.457,1374.024c-1.813.845-7.451.9-9.388.917-5.266.052-7.894.073-9.389-.917-4.978-3.3.217-13.8-1.144-26.794a44.883,44.883,0,0,0-5.214-16.479h-.01c.01-.01,0-.01-.01-.02a53.682,53.682,0,0,0-8.286-11.439,46.165,46.165,0,0,0-5.514-5.039,55.518,55.518,0,0,0-26.382-10.843c-3.731-11.954,1.855-21.394,5.719-26.124a204.986,204.986,0,0,0,31.329-1.278c.32-.042.639-.083.948-.113.361-.041.711-.093,1.072-.134a36.658,36.658,0,0,1,18.715,38.1c-.247.144-.474.268-.69.392C794.46,1318.322,810.165,1369.974,801.457,1374.024Z" transform="translate(-704.787 -1264.556)"/>
    <path id="Path_167086" data-name="Path 167086" class="cls-4" d="M785.406,1306.022a25.794,25.794,0,0,0-3.817-14.809,25.5,25.5,0,0,0-8.636-8.4" transform="translate(-703.623 -1264.34)"/>
    <path id="Path_167087" data-name="Path 167087" class="cls-2" d="M743.729,1281.4q5.078-.078,10.3-.07,4.579.009,9.046.084a21.572,21.572,0,0,1,6.871,8.963c3.994,9.96-1.429,19.264-2.176,20.5a45.087,45.087,0,0,0-27.367-10.65,18.89,18.89,0,0,1,3.323-18.823Z" transform="translate(-704.654 -1264.386)"/>
    <path id="Path_167088" data-name="Path 167088" class="cls-4" d="M728.288,1279.813a12.247,12.247,0,0,0-4.753,7.264,12.486,12.486,0,0,0,2.289,9.835" transform="translate(-705.141 -1264.432)"/>
    <path id="Path_167089" data-name="Path 167089" class="cls-4" d="M723.75,1273.431a19.882,19.882,0,0,0-7.715,11.786,20.264,20.264,0,0,0,3.716,15.959" transform="translate(-705.375 -1264.627)"/>
    <path id="Path_167090" data-name="Path 167090" class="cls-4" d="M718.167,1264.888a30.584,30.584,0,0,0-11.871,18.135c-2.762,13.157,4.593,23.091,5.718,24.558" transform="translate(-705.679 -1264.888)"/>
  </g>
</svg>
