<svg width="119" height="128" viewBox="0 0 119 128" fill="none" xmlns="http://www.w3.org/2000/svg">
<path opacity="0.05" d="M43.3738 112.105C28.951 102.217 16.4807 89.7479 6.59117 75.3271C2.41346 71.0508 0.0516923 65.3246 7.16885e-05 59.3469C-0.00741101 56.3808 0.570948 53.4424 1.70202 50.7004C2.83309 47.9584 4.49461 45.4666 6.59117 43.3682C17.143 29.5124 29.5153 17.1426 43.3738 6.59333C47.6498 2.41542 53.3761 0.0528779 59.3545 7.13195e-05C62.321 -0.00739364 65.2598 0.571227 68.002 1.7027C70.7443 2.83418 73.2359 4.49621 75.3338 6.59333C88.9983 17.3628 101.344 29.7064 112.116 43.3682C116.296 47.643 118.659 53.369 118.711 59.3469C118.718 62.3135 118.139 65.2523 117.008 67.9946C115.876 70.737 114.214 73.2288 112.116 75.3271C101.355 88.9994 89.0079 101.345 75.3338 112.105C72.6108 114.784 69.2705 116.753 65.6073 117.837C63.5725 118.428 61.463 118.722 59.3441 118.71C56.6828 118.65 54.0513 118.135 51.5634 117.189C48.5293 116.042 45.7475 114.315 43.3738 112.105Z" fill="url(#paint0_linear_3137_9104)"/>
<path d="M33 106.5L56.5 113.5L75.9683 83.9444L67.7284 65.6091C67.7284 65.6091 61.1049 51.7083 61.4427 48.2022C61.7805 44.6961 47.458 50.3157 47.458 50.3157C47.458 50.3157 50.5329 53.7422 45.8416 56.3653C41.1503 58.9883 38.0508 80.1568 38.0508 80.1568L33 106.5Z" fill="white"/>
<path d="M28.7882 119.64L29.0135 121.372C29.0135 121.372 36.0175 128.348 58.4672 127.953C80.917 127.557 82.6597 119.771 82.6597 119.771C82.6597 119.771 85.5163 94.2268 79.7469 85.4375C73.9776 76.6482 29.214 109.141 28.7882 119.64Z" fill="white"/>
<path d="M47.9089 47.1818C49.0531 53.8568 48.8996 60.6897 47.457 67.3066L64.2652 66.554C63.8147 63.9447 62.5925 56.4793 62.4167 53.3701C62.05 46.9306 63.4179 45.825 64.1897 41.1475L47.9089 47.1818Z" fill="white"/>
<path d="M52.1507 56.5252C51.5052 56.0432 50.7953 56.2944 50.1567 55.5872C49.9274 55.2948 49.7619 54.9576 49.6711 54.5973C49.5803 54.2371 49.566 53.8618 49.6293 53.4957C49.7007 52.9671 49.9324 52.4731 50.2931 52.0803C50.6538 51.6874 51.1262 51.4145 51.6468 51.2983C52.9913 51.1912 53.3386 53.118 54.7614 53.1042C55.9782 53.0919 56.323 51.6787 58.2415 51.4315C58.6953 51.3366 59.1673 51.3846 59.5928 51.5689C59.9741 51.771 60.2932 52.0732 60.5157 52.443C60.7383 52.8129 60.8559 53.2364 60.8559 53.668C60.8559 54.0996 60.7383 54.5231 60.5157 54.8929C60.2932 55.2627 59.9741 55.565 59.5928 55.7671C58.8979 56.1695 58.4612 55.9841 58.0121 56.1791C57.4627 56.4126 56.7528 57.2778 56.8379 61.4609C56.9258 65.7636 57.7278 67.5214 56.5632 68.6832C56.0932 69.1506 55.4649 69.4246 54.8026 69.451C54.0767 69.4116 53.3956 69.0874 52.9074 68.5487C51.8665 67.4006 52.4804 65.8569 52.8168 60.7838C52.9816 58.3434 52.9459 57.1212 52.1507 56.5252Z" fill="white" stroke="#050A4E" stroke-width="0.4" stroke-miterlimit="10" stroke-linecap="round"/>
<path d="M59.5803 61.5598C58.8854 63.3012 58.3896 64.3065 57.5739 64.5084C56.5192 64.7638 56.1607 63.2971 54.8135 63.3863C53.6269 63.4646 53.2589 64.6471 52.255 64.4191C51.7565 64.3065 51.464 63.9233 50.8817 63.1583C50.0467 62.157 49.5335 60.9269 49.4094 59.629C49.3696 59.07 49.2968 58.0469 49.8214 57.5799C49.9704 57.468 50.1435 57.3925 50.327 57.3596C50.5104 57.3267 50.699 57.3373 50.8776 57.3904C51.4832 57.5278 51.7235 57.9768 52.2509 58.4891C52.6052 58.8878 53.0385 59.2086 53.5234 59.4308C54.0083 59.653 54.5342 59.772 55.0676 59.78C55.6495 59.6414 56.1821 59.3455 56.6071 58.9244C57.4627 58.2282 57.5808 57.6884 58.2922 57.4618C58.5024 57.3777 58.7305 57.3477 58.9553 57.3748C59.1802 57.402 59.3947 57.4853 59.579 57.617C59.9573 58.0446 60.1542 58.6026 60.1283 59.173C60.1327 60.0003 59.9452 60.8173 59.5803 61.5598Z" fill="#F40009" stroke="#050A4E" stroke-width="0.4" stroke-miterlimit="10" stroke-linecap="round"/>
<path d="M52.7147 57.6329C53.43 57.5063 54.1554 57.4456 54.8818 57.4516C55.589 57.4586 56.294 57.5294 56.9885 57.6631" fill="white"/>
<path d="M52.7147 57.6329C53.43 57.5063 54.1554 57.4456 54.8818 57.4516C55.589 57.4586 56.294 57.5294 56.9885 57.6631" stroke="#050A4E" stroke-width="0.4" stroke-miterlimit="10"/>
<path d="M52.4139 65.6075C53.9067 66.0495 55.4956 66.0495 56.9885 65.6075H52.4139Z" fill="white"/>
<path d="M52.4139 65.6075C53.9067 66.0495 55.4956 66.0495 56.9885 65.6075" stroke="#050A4E" stroke-width="0.4" stroke-miterlimit="10"/>
<path d="M41.1486 31.2384C40.874 31.2645 37.9543 31.5681 37.2003 33.4193C36.4065 35.3667 38.0586 38.8769 42.0756 40.4397C41.1546 37.4654 40.8394 34.3367 41.1486 31.2384Z" fill="white" stroke="#050A4E" stroke-width="0.4" stroke-miterlimit="10" stroke-linecap="round"/>
<path d="M68.0838 30.0674C68.3667 30.0674 71.2906 30.1594 72.1585 31.9502C73.0704 33.8344 71.6394 37.46 67.7295 39.3167C68.4634 36.2881 68.5839 33.1433 68.0838 30.0674Z" fill="white" stroke="#050A4E" stroke-width="0.4" stroke-miterlimit="10" stroke-linecap="round"/>
<path d="M55.262 53.3496C63.0361 53.1529 69.1095 43.9512 68.8274 32.7969C68.5452 21.6427 62.0144 12.7598 54.2403 12.9564C46.4662 13.1531 40.3928 22.3548 40.6749 33.5091C40.9571 44.6633 47.488 53.5462 55.262 53.3496Z" fill="white" stroke="#050A4E" stroke-width="0.4" stroke-miterlimit="10" stroke-linecap="round"/>
<path d="M73.0891 87.9893C72.8323 93.1722 72.7856 98.8701 73.0891 105.001C73.3637 110.589 73.8966 115.783 74.5682 120.532L71.3477 125.105L66.4395 97.873L73.0891 87.9893Z" fill="white"/>
<path d="M29.5218 123.619C30.1164 107.002 30.3265 102.175 30.4378 99.4598C30.4694 98.6674 30.5436 96.9439 30.8498 94.6972C31.0503 93.2044 31.2796 92.0136 31.4238 91.316C28.4602 92.3084 25.2551 92.3157 22.2871 91.3366C20.9069 90.8463 18.0037 89.8164 17.4956 87.6548C17.1715 86.2718 18.0586 85.4217 19.4333 82.3633C20.3795 80.4334 21.0906 78.3968 21.551 76.2973C22.7774 71.0128 23.5657 68.1232 23.9488 66.8213C24.9692 63.3345 29.497 59.2585 44.9044 56.6588C45.8262 56.5055 46.6639 56.0306 47.2688 55.3184C47.8737 54.6061 48.2067 53.7026 48.2086 52.7681C48.199 52.0689 48.1227 51.3722 47.9807 50.6875" fill="white"/>
<path d="M29.5218 123.619C30.1164 107.002 30.3265 102.175 30.4378 99.4598C30.4694 98.6674 30.5436 96.9439 30.8498 94.6972C31.0503 93.2044 31.2796 92.0136 31.4238 91.316C28.4602 92.3084 25.2551 92.3157 22.2871 91.3366C20.9069 90.8463 18.0037 89.8164 17.4956 87.6548C17.1715 86.2718 18.0586 85.4217 19.4333 82.3633C20.3795 80.4334 21.0906 78.3968 21.551 76.2973C22.7774 71.0128 23.5657 68.1232 23.9488 66.8213C24.9692 63.3345 29.497 59.2585 44.9044 56.6588C45.8262 56.5055 46.6639 56.0306 47.2688 55.3184C47.8737 54.6061 48.2067 53.7026 48.2086 52.7681C48.199 52.0689 48.1227 51.3722 47.9807 50.6875" stroke="#050A4E" stroke-width="0.4" stroke-miterlimit="10" stroke-linecap="round"/>
<path d="M25.3265 92.4092C24.6114 95.8114 24.1105 99.2552 23.8268 102.72C23.2221 108.402 23.4284 114.142 24.4393 119.766" fill="white"/>
<path d="M25.3265 92.4092C24.6114 95.8114 24.1105 99.2552 23.8268 102.72C23.2221 108.402 23.4284 114.142 24.4393 119.766" stroke="#050A4E" stroke-width="0.4" stroke-miterlimit="10" stroke-linecap="round"/>
<path d="M81.5946 89.3662C82.3111 92.7682 82.8121 96.212 83.0943 99.6771C83.6395 106.38 83.372 113.125 82.2978 119.763" fill="white"/>
<path d="M81.5946 89.3662C82.3111 92.7682 82.8121 96.212 83.0943 99.6771C83.6395 106.38 83.372 113.125 82.2978 119.763" stroke="#050A4E" stroke-width="0.4" stroke-miterlimit="10" stroke-linecap="round"/>
<path d="M62.4002 50.3154C62.2804 51.1106 62.2495 51.9167 62.3082 52.7188C62.3863 53.5877 62.7321 54.4109 63.2978 55.0751C63.8636 55.7392 64.6214 56.2114 65.4668 56.4268C73.7301 58.5925 79.461 60.9766 80.5418 62.0794C81.0911 62.6397 81.5663 63.2316 81.5663 63.2316C82.1576 63.9866 82.6872 64.788 83.1498 65.6281C84.2269 68.0665 85.0996 70.5903 85.7591 73.1731C86.5808 75.694 87.5771 78.1545 88.7406 80.5369C90.4792 84.2449 91.3856 85.3161 90.8432 86.5562C90.5383 87.2566 89.8475 87.8361 86.0516 88.8908C83.5167 89.5957 80.9404 90.1424 78.3376 90.5278C78.2113 93.4576 78.1074 96.4158 78.0259 99.4023C77.7306 110.208 77.585 112.645 77.8625 122.808" fill="white"/>
<path d="M62.4002 50.3154C62.2804 51.1106 62.2495 51.9167 62.3082 52.7188C62.3863 53.5877 62.7321 54.4109 63.2978 55.0751C63.8636 55.7392 64.6214 56.2114 65.4668 56.4268C73.7301 58.5925 79.461 60.9766 80.5418 62.0794C81.0911 62.6397 81.5663 63.2316 81.5663 63.2316C82.1576 63.9866 82.6872 64.788 83.1498 65.6281C84.2269 68.0665 85.0996 70.5903 85.7591 73.1731C86.5808 75.694 87.5771 78.1545 88.7406 80.5369C90.4792 84.2449 91.3856 85.3161 90.8432 86.5562C90.5383 87.2566 89.8475 87.8361 86.0516 88.8908C83.5167 89.5957 80.9404 90.1424 78.3376 90.5278C78.2113 93.4576 78.1074 96.4158 78.0259 99.4023C77.7306 110.208 77.585 112.645 77.8625 122.808" stroke="#050A4E" stroke-width="0.4" stroke-miterlimit="10" stroke-linecap="round"/>
<path d="M32.7653 53.3156C33.5028 54.3552 36.6738 58.1745 48.1741 56.7325C48.9379 55.8849 49.4038 54.8109 49.5007 53.6741C49.5479 53.0013 49.4592 52.3259 49.2398 51.6882C46.0289 48.7307 43.5666 45.0527 42.0559 40.9571C41.144 38.4233 39.8585 34.8567 41.1659 31.1913C41.5932 30.0983 42.1346 29.0534 42.781 28.0739C44.8561 24.668 45.8408 22.9321 47.2058 22.619C49.5529 22.082 50.6048 25.7777 56.4689 29.2563C58.3476 30.3714 62.5843 32.8833 65.2142 31.3245C66.7249 30.4319 67.0477 28.5889 67.7302 28.7619C68.546 28.9679 68.7548 31.7722 68.8948 33.6949C68.9031 33.8047 68.9154 33.9696 68.9264 34.1962C68.9925 36.652 68.6637 39.1026 67.9527 41.4542C66.4612 45.3879 64.0358 48.9 60.8856 51.6882C60.4298 53.2763 60.558 54.9752 61.2467 56.477C64.3249 56.5889 67.3879 55.9947 70.2009 54.7398C71.8914 53.9762 77.5852 51.404 78.4408 46.8047C78.9503 44.058 77.4644 41.9033 76.1515 39.4807C68.6449 25.628 72.4435 20.5068 65.7458 14.7608C62.5723 11.9759 58.5226 10.3921 54.3018 10.2852C50.067 10.3231 45.9937 11.9159 42.8565 14.7608C39.5825 17.903 39.2749 21.1166 37.4443 29.0022C33.2735 46.9599 30.3331 49.8878 32.7653 53.3156Z" fill="#050A4E" stroke="#050A4E" stroke-width="0.4" stroke-miterlimit="10"/>
<defs>
<linearGradient id="paint0_linear_3137_9104" x1="59.3553" y1="0" x2="59.3553" y2="118.711" gradientUnits="userSpaceOnUse">
<stop stop-color="#1778F2"/>
<stop offset="1" stop-color="#F40009"/>
</linearGradient>
</defs>
</svg>
