<svg xmlns="http://www.w3.org/2000/svg" width="100.436" height="114.638" viewBox="0 0 100.436 114.638">
    <g>
        <g>
            <path fill="#d6ea88" stroke="#2d2d2d" stroke-miterlimit="10" d="M758.007 157.449a6.414 6.414 0 0 1 6.232-5.868 60.277 60.277 0 0 0 20.529-3.75 53.617 53.617 0 0 0 11.163-6.814l6.4-4.931a7.048 7.048 0 0 1 8.992.191 69.393 69.393 0 0 0 16.449 10.9 10.7 10.7 0 0 0 1.138.451 60.033 60.033 0 0 0 20.042 3.195 6.417 6.417 0 0 1 6.328 5.72c1.415 11.648 3.2 37.724-5.676 56.248a81.948 81.948 0 0 1-39.834 34.825 6.279 6.279 0 0 1-5.052.043 81.257 81.257 0 0 1-39.876-34.1c-9.16-18.359-7.972-44.417-6.835-56.11z" transform="translate(-3029.268 -2992.267) translate(3029.867 2992.767) translate(-757.238 -134.56)"/>
        </g>
        <path fill="#2d2d2d" stroke="#d6ea88" d="M777.923 178.47a5.133 5.133 0 0 1-3.4-1.285 90.4 90.4 0 0 1-7.318-7.265 89.122 89.122 0 0 1-6.3-7.942 5.137 5.137 0 0 1 8.4-5.911 76.614 76.614 0 0 0 5.555 7q1.654 1.849 3.455 3.611c4.835-3.6 9.575-7.413 14.132-11.354 5.537-4.792 10.928-9.869 16.006-15.1a5.135 5.135 0 1 1 7.369 7.153c-5.286 5.443-10.893 10.737-16.657 15.72-5.85 5.06-11.987 9.9-18.245 14.409a5.129 5.129 0 0 1-2.997.964z" transform="translate(-3029.268 -2992.267) translate(2293.56 2889.729)"/>
    </g>
</svg>
