<svg xmlns="http://www.w3.org/2000/svg" width="46.848" height="59.798" viewBox="0 0 46.848 59.798">
    <defs>
        <style>
            .cls-1,.cls-4{fill:#86bcff;stroke:#2d2d2d;stroke-miterlimit:10;stroke-linecap:round}.cls-4{fill:none}
        </style>
    </defs>
    <g id="Group_107136" transform="translate(0.523 0.497)">
        <g id="Group_87950" transform="translate(0)">
            <path id="Path_166986" d="M1683.338 895.51c.256 2.487.55 6.093.625 10.464a39.96 39.96 0 0 1-.625 11.085c-1.139 4.19-2.947 5.671-6.7 11.319a103.2 103.2 0 0 0-7.117 12.547 4.727 4.727 0 0 0-.362 3.975 4.838 4.838 0 0 0 3.471 2.822c2.8.23 6.763.531 11.548.8.542.03 4.766.264 10.415.369a61.9 61.9 0 0 0 12.452-1.172 6.042 6.042 0 0 0 4.266-2.178 5.9 5.9 0 0 0 .071-4.846c-2.83-8.757-11.21-13.718-13.959-23.5a39.133 39.133 0 0 1-1.055-10.343 60.965 60.965 0 0 1 .987-12z" class="cls-1" transform="translate(-1668.884 -890.096)"/>
            <path id="Path_166987" fill="#fff" stroke="#2d2d2d" stroke-linecap="round" stroke-miterlimit="10" d="M1672.322 894.8a3.434 3.434 0 0 0 .079 3.47c.614.968 1.831 1.612 9.341 1.6 7.472 0 8.67-.637 9.253-1.6a3.392 3.392 0 0 0-.018-3.391c-.9-1.417-2.75-1.266-9.566-1.281-6.44-.003-8.235-.145-9.089 1.202z" transform="translate(-1660.565 -893.595)"/>
            <path id="Path_166988" fill="#fff" stroke="#2d2d2d" stroke-miterlimit="10" d="M1670.417 919.82c1.209 2.905 6.85 2.939 17.709 2.886 13.686-.075 15.068-1.88 15.5-2.811.81-1.8-.34-3.926-2.4-7.728a16.049 16.049 0 0 0-7.209-8.041 15.757 15.757 0 0 0-6.824-1.051 15.561 15.561 0 0 0-6.266.927c-3.813 1.567-5.7 4.8-7.69 8.206-2.337 3.98-3.499 5.985-2.82 7.612z" transform="translate(-1665.171 -867.454)"/>
            <path id="Line_569" d="M0 0L6.378 0" class="cls-4" transform="translate(18.684 16.471)"/>
            <path id="Line_570" d="M0 0L6.378 0" class="cls-4" transform="translate(18.684 20.242)"/>
            <path id="Line_571" d="M0 0L6.378 0" class="cls-4" transform="translate(18.684 24.457)"/>
            <path id="Line_572" d="M0 0L6.378 0" class="cls-4" transform="translate(18.684 28.669)"/>
        </g>
        <g id="Group_87949" transform="translate(17.9 20.657)">
            <path id="Path_166983" d="M1668.8 899.4c.166 1.616.357 3.952.4 6.792a25.808 25.808 0 0 1-.4 7.193c-.738 2.717-1.914 3.678-4.346 7.341a67.964 67.964 0 0 0-4.621 8.14 3.081 3.081 0 0 0-.233 2.58 3.14 3.14 0 0 0 2.254 1.832c1.815.151 4.388.346 7.5.521.354.017 3.087.172 6.765.237a40 40 0 0 0 8.078-.761 3.9 3.9 0 0 0 2.766-1.407 3.811 3.811 0 0 0 .048-3.145c-1.835-5.681-7.276-8.9-9.056-15.245a25.55 25.55 0 0 1-.686-6.713 39.828 39.828 0 0 1 .641-7.787z" class="cls-1" transform="translate(-1659.423 -895.896)"/>
            <path id="Path_166984" fill="#ff8e93" stroke="#2d2d2d" stroke-linecap="round" stroke-miterlimit="10" d="M1661.845 898.861a2.228 2.228 0 0 0 .055 2.254c.4.631 1.188 1.046 6.062 1.043s5.626-.415 6-1.043a2.208 2.208 0 0 0-.01-2.2c-.584-.916-1.784-.817-6.206-.83-4.178-.006-5.335-.099-5.901.776z" transform="translate(-1654.217 -898.082)"/>
            <path id="Path_166985" fill="#ff8e93" stroke="#2d2d2d" stroke-miterlimit="10" d="M1660.5 915.683c.782 1.886 4.446 1.911 11.489 1.873 8.881-.048 9.777-1.221 10.051-1.825.529-1.166-.219-2.545-1.561-5.015a10.394 10.394 0 0 0-4.679-5.214 14.335 14.335 0 0 0-8.491-.082 10.885 10.885 0 0 0-4.987 5.321c-1.505 2.589-2.257 3.878-1.822 4.942z" transform="translate(-1657.099 -881.714)"/>
            <path id="Line_565" d="M0 0L4.137 0" class="cls-4" transform="translate(12.123 10.681)"/>
            <path id="Line_566" d="M0 0L4.137 0" class="cls-4" transform="translate(12.123 13.127)"/>
            <path id="Line_567" d="M0 0L4.137 0" class="cls-4" transform="translate(12.123 15.861)"/>
            <path id="Line_568" d="M0 0L4.137 0" class="cls-4" transform="translate(12.123 18.596)"/>
        </g>
    </g>
</svg>
