<svg width="119" height="127" viewBox="0 0 119 127" fill="none" xmlns="http://www.w3.org/2000/svg">
<path opacity="0.05" d="M43.3738 112.105C28.951 102.217 16.4807 89.7479 6.59117 75.3271C2.41346 71.0508 0.0516923 65.3246 7.16885e-05 59.3469C-0.00741101 56.3808 0.570948 53.4424 1.70202 50.7004C2.83309 47.9584 4.49461 45.4666 6.59117 43.3682C17.143 29.5124 29.5153 17.1426 43.3738 6.59333C47.6498 2.41542 53.3761 0.0528779 59.3545 7.13195e-05C62.321 -0.00739364 65.2598 0.571227 68.002 1.7027C70.7443 2.83418 73.2359 4.49621 75.3338 6.59333C88.9983 17.3628 101.344 29.7064 112.116 43.3682C116.296 47.643 118.659 53.369 118.711 59.3469C118.718 62.3135 118.139 65.2523 117.008 67.9946C115.876 70.737 114.214 73.2288 112.116 75.3271C101.355 88.9994 89.0079 101.345 75.3338 112.105C72.6108 114.784 69.2705 116.753 65.6073 117.837C63.5725 118.428 61.463 118.722 59.3441 118.71C56.6828 118.65 54.0513 118.135 51.5634 117.189C48.5293 116.042 45.7475 114.315 43.3738 112.105Z" fill="url(#paint0_linear_3051_9132)"/>
<path d="M35.933 101.867L38.3393 122.105L77.8227 122.247L80.5108 113.047L77.8227 103.848L35.933 101.867Z" fill="white"/>
<path d="M43.4063 46.8663C41.6051 43.9422 40.5651 40.6136 40.381 37.1843C39.9444 27.4949 45.9747 14.7839 56.5945 12.0645C59.0963 11.2944 61.7649 11.2478 64.2921 11.93C71.1626 13.999 73.8415 21.5291 78.6632 35.8982C83.9252 51.5921 82.0735 54.575 80.9312 55.7616C80.185 56.5391 78.7571 57.5745 73.5725 57.8527C68.6569 58.118 50.9345 59.0706 43.4063 46.8663Z" fill="#050A4E"/>
<path d="M69.6555 58.4102C56.6074 58.4102 47.6624 54.6166 43.0268 47.1031C41.1836 44.1149 40.1206 40.7116 39.9352 37.2056C39.3493 24.1777 48.0732 13.7864 56.4932 11.6326C59.0734 10.8362 61.8271 10.7908 64.4322 11.5017C71.6933 13.6887 74.479 22.0036 79.0943 35.7556C84.0689 50.5872 82.864 54.4047 81.2592 56.0721C80.3509 57.021 78.7314 58.0251 73.602 58.2996C72.2472 58.3733 70.9317 58.4102 69.6555 58.4102ZM43.7877 46.6352C48.6923 54.5816 58.7115 58.2075 73.556 57.4097C78.4016 57.1499 79.8755 56.2287 80.618 55.4568C81.3605 54.6848 83.6857 52.2638 78.2487 36.043C73.3515 21.4362 70.7076 14.3262 64.1761 12.3603C61.7283 11.7039 59.1449 11.7525 56.7235 12.5003C46.6674 15.0797 40.3884 27.332 40.8306 37.1687C41.009 40.5227 42.0264 43.7783 43.7896 46.637L43.7877 46.6352Z" fill="#050A4E"/>
<path d="M36.7072 106.369L38.511 123.135L64.6201 123.773L78.525 120.482C79.9218 116.391 80.4287 112.048 80.0118 107.745L36.7072 106.369Z" fill="white"/>
<path d="M71.2597 87.3102C72.8676 85.1191 74.2771 82.789 75.4715 80.3477C76.2766 78.5071 76.9471 76.6105 77.4779 74.673C78.6036 70.2732 81.6953 58.1666 74.53 53.1515C71.1031 50.7563 66.5928 50.8595 64.1552 47.042C63.3623 45.789 62.9331 44.3404 62.9153 42.8578L55.7298 41.9237C55.6026 43.4202 54.9499 44.8234 53.8873 45.8849C52.9882 46.7674 51.9381 47.2667 46.4679 48.9673C41.6241 50.4744 41.1248 50.4947 40.0875 51.1782C38.2154 52.5039 36.8811 54.4573 36.3271 56.6834C35.1311 60.3811 34.8256 64.3089 35.4353 68.1471C36.0747 71.8124 37.4538 75.3092 39.4887 78.4242C40.7835 80.4269 42.3269 82.2575 44.0819 83.8723" fill="white"/>
<path d="M71.6227 87.5668L70.895 87.0491C72.486 84.8787 73.8824 82.5723 75.0681 80.1565C75.862 78.3414 76.5239 76.4714 77.0487 74.561C78.1818 70.13 81.1924 58.3568 74.2685 53.5167C72.98 52.6946 71.5935 52.0373 70.1415 51.5601C67.5914 50.9069 65.3433 49.3972 63.774 47.2838C63.006 46.0726 62.562 44.6845 62.4843 43.2525L56.1131 42.4234C55.9034 43.8588 55.2306 45.1863 54.197 46.2041C53.2242 47.1585 52.1703 47.6633 46.5988 49.3934C45.3091 49.7969 44.3142 50.0953 43.544 50.3275C42.4147 50.56 41.3295 50.9705 40.329 51.5435C38.5367 52.8094 37.2641 54.6822 36.7473 56.8147C35.5752 60.445 35.2754 64.3005 35.8721 68.0683C36.502 71.6715 37.8565 75.1095 39.8536 78.1741C41.1277 80.1443 42.6463 81.9452 44.3731 83.5337L43.767 84.1933C41.9856 82.5549 40.4188 80.6978 39.1038 78.666C37.0397 75.4967 35.6401 71.9415 34.9896 68.2157C34.3702 64.3072 34.6814 60.3077 35.8979 56.542C36.4722 54.2153 37.872 52.1765 39.837 50.8047C40.9072 50.1803 42.0713 49.7329 43.2842 49.4799C44.0507 49.2496 45.0364 48.9512 46.3316 48.5495C51.6747 46.8913 52.7323 46.3976 53.5706 45.574C54.5616 44.5884 55.169 43.282 55.284 41.8891L55.3319 41.434L63.3539 42.4769V42.8619C63.3687 44.263 63.7739 45.6322 64.5238 46.8158C65.992 48.7631 68.0844 50.1472 70.451 50.7365C71.9744 51.2372 73.428 51.9293 74.777 52.7963C82.2057 57.9939 79.0828 70.2 77.9091 74.7969C77.3731 76.7594 76.6958 78.6805 75.8825 80.5453C74.6721 83.0066 73.2466 85.3563 71.6227 87.5668Z" fill="#050A4E"/>
<path d="M64.662 75.1623C64.4391 75.1623 64.2935 75.1512 64.2733 75.1494C62.663 74.9276 61.1487 74.2532 59.9067 73.2046C58.6647 72.156 57.7459 70.7763 57.2573 69.226C56.8171 69.9777 56.2606 70.6549 55.6083 71.2324C53.0823 73.4635 48.701 74.5266 45.7384 72.4557C44.6422 71.6065 43.7916 70.4811 43.2736 69.1948C42.7555 67.9085 42.5888 66.5077 42.7905 65.1357C42.8983 64.5435 43.0643 63.9634 43.2861 63.4038C43.6717 62.4506 43.8929 61.4389 43.9401 60.4117C43.9791 59.5109 43.9029 58.6088 43.7135 57.7273C43.7014 57.67 43.7008 57.6108 43.7115 57.5532C43.7223 57.4956 43.7443 57.4407 43.7763 57.3916C43.8083 57.3424 43.8496 57.3001 43.898 57.267C43.9463 57.2339 44.0007 57.2106 44.0581 57.1985C44.1154 57.1864 44.1746 57.1857 44.2322 57.1965C44.2898 57.2073 44.3447 57.2293 44.3938 57.2613C44.4429 57.2933 44.4852 57.3346 44.5184 57.383C44.5515 57.4313 44.5747 57.4857 44.5868 57.5431C44.7932 58.4989 44.8762 59.4772 44.8337 60.4541C44.7829 61.5706 44.5444 62.6706 44.1281 63.7078C43.9262 64.2151 43.7744 64.7408 43.6748 65.2776C43.5046 66.4841 43.6532 67.7141 44.1057 68.8454C44.5582 69.9767 45.2989 70.9699 46.2542 71.7261C48.8558 73.5483 52.7525 72.5681 55.0206 70.5654C55.8593 69.817 56.5208 68.8912 56.957 67.8552L57.4876 66.6244L57.8008 67.927C58.1044 69.53 58.8969 70.9997 60.0693 72.1342C61.2418 73.2687 62.7367 74.0124 64.3488 74.2632C65.3284 74.3193 66.3089 74.1677 67.2259 73.8184C68.1429 73.4692 68.9757 72.9301 69.6698 72.2365C70.5432 71.2465 71.094 70.0138 71.2488 68.7027C71.3343 67.9291 71.2717 67.1462 71.0645 66.396C70.8772 65.5995 70.7662 64.787 70.7329 63.9695C70.6872 62.6451 70.8419 61.3214 71.1916 60.0432C71.2239 59.9287 71.3001 59.8316 71.4036 59.7729C71.5071 59.7143 71.6295 59.6989 71.7444 59.73C71.8015 59.7454 71.8549 59.7719 71.9017 59.8081C71.9484 59.8443 71.9875 59.8894 72.0167 59.9408C72.0458 59.9923 72.0644 60.049 72.0715 60.1077C72.0785 60.1664 72.0738 60.2259 72.0576 60.2828C71.732 61.4747 71.5879 62.7088 71.6301 63.9437C71.6624 64.7091 71.7673 65.4698 71.9433 66.2154C72.1661 67.0654 72.2286 67.9495 72.1276 68.8225C71.9491 70.3156 71.3192 71.7188 70.322 72.8445C69.5844 73.5936 68.7025 74.1852 67.7296 74.5836C66.7567 74.982 65.7132 75.1789 64.662 75.1623Z" fill="#050A4E"/>
<path d="M44.9907 82.3729C43.7256 85.9799 41.8401 89.3382 39.4191 92.2962L73.9132 93.6762C71.0702 88.9864 69.2781 83.7357 68.6604 78.2863L46.4775 76.2707C46.1802 78.348 45.6823 80.3916 44.9907 82.3729Z" fill="white"/>
<path d="M37.2761 114.204C37.174 114.203 37.0751 114.168 36.9957 114.104C36.9163 114.039 36.8612 113.95 36.8395 113.85C34.6691 103.685 35.3655 96.2769 38.9085 91.8274C41.5802 88.579 43.6403 84.8728 44.9886 80.8889C45.2597 79.7448 45.4445 78.582 45.5413 77.4103C45.6614 75.6381 45.5481 73.8578 45.2041 72.1152C45.1926 72.0576 45.1926 71.9983 45.204 71.9407C45.2155 71.883 45.2382 71.8283 45.2709 71.7795C45.3036 71.7307 45.3457 71.6888 45.3946 71.6563C45.4435 71.6238 45.4984 71.6013 45.556 71.5901C45.6722 71.5683 45.7923 71.593 45.8905 71.6588C45.9886 71.7246 46.0571 71.8263 46.0811 71.942C46.4409 73.7609 46.5592 75.6194 46.433 77.4693C46.3375 78.6932 46.1478 79.9079 45.8656 81.1026C44.5091 85.209 42.3991 89.0266 39.6437 92.3599C36.2554 96.614 35.6179 103.774 37.7294 113.664C37.754 113.78 37.7318 113.901 37.6675 114C37.6033 114.099 37.5023 114.169 37.3867 114.195C37.3503 114.202 37.3132 114.205 37.2761 114.204Z" fill="#050A4E"/>
<path d="M79.024 119.651C78.9843 119.651 78.9447 119.646 78.9061 119.636C78.8491 119.621 78.7958 119.594 78.7492 119.558C78.7026 119.522 78.6636 119.477 78.6345 119.425C78.6054 119.374 78.5867 119.317 78.5796 119.259C78.5724 119.2 78.577 119.141 78.5929 119.084C80.2659 113.042 80.1694 106.648 78.3147 100.659C77.0563 96.6655 75.0276 92.9568 72.3433 89.7429C70.771 87.6122 69.6089 85.2074 68.9164 82.6514C68.1243 79.7 67.9673 76.6142 68.4558 73.5977C68.4802 73.4857 68.5467 73.3873 68.6414 73.3229C68.7362 73.2584 68.8521 73.2328 68.9652 73.2512C69.0783 73.2696 69.1801 73.3307 69.2495 73.4219C69.3189 73.5131 69.3507 73.6274 69.3383 73.7414C68.87 76.6315 69.0208 79.5881 69.7805 82.4156C70.4408 84.8565 71.5484 87.1536 73.0472 89.1902C75.7982 92.4874 77.8775 96.291 79.1678 100.387C81.0744 106.54 81.1748 113.111 79.457 119.32C79.4317 119.415 79.3755 119.499 79.2971 119.559C79.2188 119.619 79.1227 119.652 79.024 119.651Z" fill="#050A4E"/>
<path d="M58.1235 112.148C58.0315 112.149 57.9417 112.121 57.8665 112.068C57.7913 112.015 57.7342 111.94 57.7034 111.854C55.66 106.152 51.6193 101.385 46.33 98.4352C46.2267 98.3776 46.1505 98.2812 46.1181 98.1673C46.0858 98.0535 46.1001 97.9315 46.1577 97.8281C46.2154 97.7248 46.3117 97.6486 46.4256 97.6163C46.5394 97.584 46.6615 97.5982 46.7648 97.6559C52.2432 100.71 56.4282 105.647 58.5435 111.552C58.5832 111.663 58.5772 111.786 58.5268 111.893C58.4764 112 58.3857 112.082 58.2745 112.123C58.226 112.14 58.1749 112.148 58.1235 112.148Z" fill="#050A4E"/>
<path d="M56.9885 126.378C56.8838 126.378 56.7825 126.341 56.7023 126.273C56.6221 126.206 56.5682 126.113 56.5501 126.009C55.5126 120.638 56.134 115.078 58.3317 110.069C60.2769 105.726 63.3497 101.983 67.2307 99.2296C67.3272 99.161 67.447 99.1335 67.5638 99.1531C67.6806 99.1728 67.7847 99.2381 67.8534 99.3346C67.922 99.4311 67.9496 99.551 67.9299 99.6678C67.9102 99.7845 67.8449 99.8887 67.7484 99.9574C63.997 102.618 61.0272 106.236 59.1479 110.433C57.0232 115.274 56.4223 120.647 57.4252 125.838C57.4367 125.896 57.4367 125.955 57.4253 126.013C57.4138 126.07 57.3911 126.125 57.3584 126.174C57.3257 126.223 57.2836 126.264 57.2347 126.297C57.1858 126.329 57.131 126.352 57.0733 126.363C57.0455 126.371 57.0172 126.375 56.9885 126.378Z" fill="#050A4E"/>
<path d="M61.9133 19.2451C66.6115 20.369 70.16 25.4375 70.16 31.5268C70.16 38.4469 65.5761 44.0553 59.9345 44.0553C54.293 44.0553 49.6961 38.4506 49.6961 31.5268C49.6982 30.6064 49.7796 29.6879 49.9393 28.7815" fill="white"/>
<path d="M59.9418 44.5006C54.0461 44.5006 49.2557 38.6822 49.2557 31.5298C49.2558 30.5844 49.3365 29.6407 49.4971 28.7091L50.3759 28.8602C50.2217 29.7411 50.1428 30.6336 50.1401 31.528C50.1401 38.1884 54.5325 43.607 59.9327 43.607C65.3328 43.607 69.7123 38.1884 69.7123 31.528C69.7123 25.7575 66.3959 20.7755 61.8082 19.6811L62.0164 18.8097C66.991 20.0017 70.6059 25.3485 70.6059 31.5225C70.6077 38.6803 65.8192 44.5006 59.9418 44.5006Z" fill="#050A4E"/>
<path d="M49.4638 29.4129L49.1985 28.5599C52.7597 27.4506 55.9922 25.4799 58.6097 22.8225C61.5932 19.7785 63.6396 15.9415 64.5054 11.7679L65.3806 11.9522C64.4815 16.291 62.356 20.2807 59.2563 23.4471C56.5331 26.2116 53.1694 28.2609 49.4638 29.4129Z" fill="#050A4E"/>
<path d="M55.8499 70.2969C57.2361 68.7172 58.1464 66.7771 58.4754 64.7014L55.8499 70.2969Z" fill="white"/>
<path d="M55.8498 70.7432C55.7647 70.7428 55.6814 70.7179 55.6099 70.6716C55.5384 70.6254 55.4817 70.5596 55.4464 70.482C55.4111 70.4045 55.3988 70.3185 55.4109 70.2342C55.4229 70.1499 55.4589 70.0708 55.5145 70.0063C56.8446 68.4899 57.7178 66.6278 58.0331 64.6356C58.0517 64.5185 58.116 64.4137 58.2119 64.344C58.3078 64.2744 58.4274 64.2457 58.5444 64.2643C58.6614 64.2829 58.7663 64.3472 58.8359 64.4431C58.9055 64.5389 58.9342 64.6585 58.9157 64.7756C58.5739 66.9347 57.6271 68.9528 56.1852 70.5958C56.143 70.6428 56.0912 70.6803 56.0334 70.7057C55.9756 70.7311 55.913 70.7439 55.8498 70.7432Z" fill="#050A4E"/>
<path d="M49.7549 28.8351C49.5117 28.848 47.0152 29.0046 46.3225 30.4767C45.5855 32.0262 46.9102 34.9077 50.304 36.2914C49.5946 33.873 49.4062 31.3316 49.7512 28.8351H49.7549Z" fill="white"/>
<path d="M50.9912 37.0528L50.1345 36.7046C49.2162 36.3715 48.3741 35.8574 47.6582 35.1927C46.9423 34.5281 46.3672 33.7265 45.9669 32.8354C45.7866 32.4352 45.6892 32.0026 45.6807 31.5637C45.6721 31.1248 45.7525 30.6888 45.9171 30.2818C46.7002 28.6236 49.2335 28.4099 49.7328 28.3841L50.2727 28.3565L50.199 28.8908C49.8608 31.3247 50.0429 33.8027 50.7333 36.161L50.9912 37.0528ZM49.2427 29.3385C48.4837 29.4509 47.1461 29.7733 46.726 30.6669C46.6165 30.9638 46.5667 31.2793 46.5793 31.5954C46.592 31.9116 46.6669 32.2222 46.7997 32.5093C47.3727 33.7927 48.3709 34.8391 49.626 35.472C49.1521 33.4626 49.0225 31.3875 49.2427 29.3348V29.3385Z" fill="#050A4E"/>
<path d="M50.7593 28.0232C54.9587 26.4716 58.5551 23.6232 61.0272 19.8906C57.779 22.4829 54.0001 25.4309 50.7593 28.0232Z" fill="#050A4E"/>
<path d="M44.2482 61.678C53.1555 59.9517 62.3576 60.5546 70.9636 63.4283C71.8077 65.2235 72.0407 67.2457 71.6268 69.1859C71.0152 71.699 69.3496 72.7381 68.76 75.7947C68.5391 76.9617 68.5155 78.1574 68.69 79.3322L45.9064 78.5952C46.0068 77.8447 46.0536 77.088 46.0465 76.3309C46.0556 75.5122 45.9846 74.6945 45.8346 73.8896C45.4514 72.1025 44.6352 71.9164 43.7655 69.9984C43.1548 68.7302 42.8458 67.3378 42.8627 65.9303C42.9254 64.4125 43.4047 62.9413 44.2482 61.678Z" fill="white"/>
<path d="M69.2131 79.7988L45.4015 79.0232L45.4678 78.5331C45.5656 77.8034 45.6112 77.0676 45.6042 76.3314C45.6134 75.5431 45.5462 74.7557 45.4033 73.9804C45.2562 73.2645 44.9354 72.5958 44.4692 72.033C44.0337 71.4583 43.663 70.8373 43.3638 70.1813C42.7232 68.8519 42.4009 67.3916 42.4223 65.9161C42.4894 64.3202 42.9907 62.7728 43.8723 61.4408L43.9754 61.2805L44.1597 61.2436C53.1438 59.5022 62.4255 60.1108 71.1053 63.0105L71.2988 63.075L71.3762 63.2593C72.2471 65.1459 72.4887 67.2626 72.0652 69.2969C71.775 70.3582 71.3186 71.3669 70.7129 72.2854C69.9861 73.3782 69.474 74.5993 69.2039 75.8836C68.9924 77.002 68.9694 78.1478 69.1357 79.2737L69.2131 79.7988ZM46.4111 78.1627L68.1887 78.8721C68.0819 77.8177 68.1284 76.7534 68.3269 75.7123C68.6136 74.3255 69.1634 73.0065 69.9464 71.8266C70.5058 70.9847 70.9281 70.0593 71.1974 69.0851C71.566 67.3048 71.3682 65.4539 70.6318 63.7917C62.2141 61.0192 53.2296 60.4321 44.5226 62.0856C43.7905 63.2437 43.3738 64.5731 43.314 65.9419C43.2984 67.2809 43.5935 68.6053 44.1763 69.811C44.4512 70.4132 44.7923 70.9829 45.1933 71.5097C45.73 72.1749 46.1013 72.9578 46.2766 73.7943C46.4331 74.6289 46.5072 75.4768 46.4977 76.3258C46.5025 76.938 46.4736 77.55 46.4111 78.1591V78.1627Z" fill="#050A4E"/>
<path d="M40.7438 90.1938L73.7234 90.8313C77.9713 96.2574 80.2316 102.975 80.1277 109.866C65.9942 113.721 51.1358 114.085 36.8304 110.927C36.0826 106.827 36.0104 102.632 36.6167 98.5087C36.8772 96.9641 37.3535 95.4638 38.0317 94.0519C38.7327 92.6345 39.6474 91.3332 40.7438 90.1938Z" fill="white"/>
<path d="M56.3215 113.5C49.7295 113.499 43.1571 112.782 36.7198 111.361L36.425 111.297L36.3753 111C35.6175 106.849 35.546 102.601 36.1634 98.4257C36.4413 96.842 36.9302 95.3028 37.6171 93.8491C38.3439 92.3909 39.2895 91.0525 40.4213 89.8805L40.5558 89.7404L73.9371 90.3853L74.0679 90.5529C78.3776 96.0599 80.671 102.877 80.5661 109.869V110.206L80.2419 110.295C72.7333 112.341 64.9934 113.416 57.2114 113.495C56.9105 113.499 56.6138 113.5 56.3215 113.5ZM37.2081 110.553C43.7727 111.969 50.4738 112.656 57.1893 112.601C64.7817 112.524 72.3339 111.489 79.667 109.521C79.6908 102.923 77.5158 96.5049 73.4857 91.2807L40.9224 90.6506C39.9119 91.7216 39.0651 92.936 38.4093 94.2544C37.7596 95.6335 37.2974 97.0934 37.0349 98.5952C36.4483 102.565 36.5068 106.603 37.2081 110.554V110.553Z" fill="#050A4E"/>
<path d="M30.1314 114.98C30.0516 114.98 29.9732 114.959 29.9043 114.918C29.8353 114.878 29.7783 114.821 29.739 114.751C27.3741 110.537 26.3748 105.693 26.879 100.887C27.3832 96.0806 29.3661 91.5494 32.5543 87.9178C32.5928 87.8738 32.6397 87.8378 32.6922 87.8119C32.7447 87.7859 32.8018 87.7706 32.8602 87.7668C32.9187 87.7629 32.9773 87.7706 33.0327 87.7894C33.0882 87.8082 33.1394 87.8378 33.1834 87.8764C33.2275 87.915 33.2635 87.9618 33.2894 88.0143C33.3153 88.0668 33.3306 88.1239 33.3345 88.1824C33.3383 88.2408 33.3306 88.2994 33.3118 88.3549C33.293 88.4103 33.2635 88.4615 33.2249 88.5055C30.1589 91.9988 28.2523 96.3572 27.7678 100.98C27.2834 105.602 28.2451 110.261 30.5202 114.314C30.5581 114.382 30.5776 114.459 30.5768 114.536C30.576 114.614 30.5549 114.69 30.5156 114.757C30.4763 114.824 30.4202 114.88 30.3528 114.919C30.2854 114.957 30.2091 114.978 30.1314 114.978V114.98Z" fill="#050A4E"/>
<path d="M23.2866 107.985C23.1906 107.984 23.0972 107.953 23.0202 107.896C22.9433 107.839 22.8868 107.758 22.8591 107.666C22.0216 104.873 21.7929 101.934 22.1885 99.0452C22.5601 96.3578 23.4713 93.7732 24.8674 91.447C24.8975 91.3967 24.9373 91.3528 24.9843 91.3178C25.0314 91.2828 25.085 91.2575 25.1418 91.2432C25.1987 91.2289 25.2579 91.226 25.3159 91.2345C25.3739 91.2431 25.4297 91.263 25.48 91.2931C25.5303 91.3233 25.5742 91.363 25.6092 91.4101C25.6442 91.4572 25.6695 91.5107 25.6838 91.5676C25.6981 91.6245 25.701 91.6836 25.6924 91.7416C25.6839 91.7997 25.664 91.8554 25.6339 91.9058C24.3011 94.1293 23.4306 96.5989 23.0747 99.1668C22.6962 101.929 22.9149 104.74 23.7159 107.41C23.7491 107.523 23.7364 107.644 23.6805 107.748C23.6246 107.851 23.53 107.928 23.4174 107.963C23.3753 107.977 23.3311 107.984 23.2866 107.985Z" fill="#050A4E"/>
<path d="M93.1851 107.984C93.1414 107.985 93.0978 107.979 93.0561 107.966C92.9435 107.932 92.8489 107.855 92.793 107.751C92.7371 107.647 92.7244 107.526 92.7576 107.413C93.5586 104.743 93.7773 101.932 93.3988 99.1701C93.0444 96.6019 92.1739 94.1319 90.8397 91.909C90.8095 91.8587 90.7896 91.803 90.781 91.7449C90.7725 91.6869 90.7754 91.6278 90.7897 91.5709C90.804 91.514 90.8293 91.4605 90.8643 91.4134C90.8993 91.3663 90.9432 91.3266 90.9935 91.2964C91.0438 91.2663 91.0996 91.2464 91.1576 91.2378C91.2156 91.2293 91.2748 91.2322 91.3317 91.2465C91.3886 91.2608 91.4421 91.2861 91.4892 91.3211C91.5362 91.3561 91.576 91.4 91.6061 91.4503C93.0026 93.7763 93.9138 96.361 94.285 99.0485C94.6812 101.937 94.4525 104.877 93.6144 107.669C93.586 107.761 93.5289 107.841 93.4517 107.898C93.3744 107.954 93.2809 107.985 93.1851 107.984Z" fill="#050A4E"/>
<path d="M86.3806 114.525C86.3168 114.525 86.2538 114.51 86.1964 114.482C86.143 114.458 86.0949 114.423 86.0549 114.38C86.0149 114.338 85.9839 114.287 85.9635 114.232C85.9431 114.177 85.9338 114.119 85.9361 114.06C85.9385 114.001 85.9524 113.944 85.9771 113.891C87.9329 109.674 88.5323 104.954 87.6928 100.382C86.8533 95.8099 84.6162 91.6109 81.2899 88.3638C81.2481 88.3228 81.2147 88.2739 81.1917 88.22C81.1688 88.1661 81.1566 88.1082 81.156 88.0496C81.1554 87.991 81.1664 87.9329 81.1882 87.8785C81.2101 87.8241 81.2425 87.7746 81.2835 87.7327C81.3245 87.6909 81.3734 87.6575 81.4273 87.6345C81.4812 87.6116 81.5391 87.5994 81.5977 87.5988C81.6563 87.5982 81.7144 87.6092 81.7688 87.6311C81.8232 87.6529 81.8727 87.6853 81.9145 87.7263C85.3717 91.1011 87.6971 95.465 88.5702 100.217C89.4434 104.968 88.8212 109.874 86.7896 114.257C86.7544 114.337 86.6971 114.404 86.6246 114.451C86.552 114.499 86.4673 114.524 86.3806 114.525Z" fill="#050A4E"/>
<defs>
<linearGradient id="paint0_linear_3051_9132" x1="59.3553" y1="0" x2="59.3553" y2="118.711" gradientUnits="userSpaceOnUse">
<stop stop-color="#1778F2"/>
<stop offset="1" stop-color="#F40009"/>
</linearGradient>
</defs>
</svg>
